<mxfile host="65bd71144e">
    <diagram id="GKDRzN0MEEb_0mSK_5NF" name="ページ1">
        <mxGraphModel dx="4390" dy="2522" grid="1" gridSize="10" guides="1" tooltips="1" connect="1" arrows="1" fold="1" page="1" pageScale="1" pageWidth="827" pageHeight="1169" math="0" shadow="0">
            <root>
                <mxCell id="0"/>
                <mxCell id="1" parent="0"/>
                <mxCell id="583" value="" style="strokeWidth=1;shadow=0;dashed=0;align=center;html=1;shape=mxgraph.mockup.containers.browserWindow;rSize=0;strokeColor=#666666;strokeColor2=#008cff;strokeColor3=#c4c4c4;mainText=,;recursiveResize=0;fontColor=#000000;" vertex="1" parent="1">
                    <mxGeometry x="395" y="1980" width="630" height="830" as="geometry"/>
                </mxCell>
                <mxCell id="584" value="配信アプリ" style="strokeWidth=1;shadow=0;dashed=0;align=center;html=1;shape=mxgraph.mockup.containers.anchor;fontSize=17;fontColor=#666666;align=left;" vertex="1" parent="583">
                    <mxGeometry x="60" y="12" width="110" height="26" as="geometry"/>
                </mxCell>
                <mxCell id="585" value="https://www.draw.io" style="strokeWidth=1;shadow=0;dashed=0;align=center;html=1;shape=mxgraph.mockup.containers.anchor;rSize=0;fontSize=17;fontColor=#666666;align=left;" vertex="1" parent="583">
                    <mxGeometry x="130" y="60" width="250" height="26" as="geometry"/>
                </mxCell>
                <mxCell id="599" value="" style="verticalLabelPosition=bottom;shadow=0;dashed=0;align=center;html=1;verticalAlign=top;strokeWidth=1;shape=mxgraph.mockup.containers.videoPlayer;strokeColor=#666666;strokeColor2=#008cff;strokeColor3=#c4c4c4;textColor=#666666;fillColor2=#008cff;barHeight=30;barPos=20;" vertex="1" parent="583">
                    <mxGeometry x="100" y="150" width="430" height="330" as="geometry"/>
                </mxCell>
                <mxCell id="586" value="" style="group" vertex="1" connectable="0" parent="583">
                    <mxGeometry x="180" y="160" width="290" height="280" as="geometry"/>
                </mxCell>
                <mxCell id="587" value="" style="verticalLabelPosition=bottom;shadow=0;dashed=0;align=center;html=1;verticalAlign=top;strokeWidth=1;shape=mxgraph.mockup.containers.userMale;strokeColor=#666666;strokeColor2=#008cff;" vertex="1" parent="586">
                    <mxGeometry width="96.66666666666666" height="93.33333333333333" as="geometry"/>
                </mxCell>
                <mxCell id="588" value="" style="verticalLabelPosition=bottom;shadow=0;dashed=0;align=center;html=1;verticalAlign=top;strokeWidth=1;shape=mxgraph.mockup.containers.userMale;strokeColor=#666666;strokeColor2=#008cff;" vertex="1" parent="586">
                    <mxGeometry x="96.66666666666666" width="96.66666666666666" height="93.33333333333333" as="geometry"/>
                </mxCell>
                <mxCell id="589" value="" style="verticalLabelPosition=bottom;shadow=0;dashed=0;align=center;html=1;verticalAlign=top;strokeWidth=1;shape=mxgraph.mockup.containers.userMale;strokeColor=#666666;strokeColor2=#008cff;" vertex="1" parent="586">
                    <mxGeometry x="193.33333333333331" width="96.66666666666666" height="93.33333333333333" as="geometry"/>
                </mxCell>
                <mxCell id="590" value="" style="verticalLabelPosition=bottom;shadow=0;dashed=0;align=center;html=1;verticalAlign=top;strokeWidth=1;shape=mxgraph.mockup.containers.userMale;strokeColor=#666666;strokeColor2=#008cff;" vertex="1" parent="586">
                    <mxGeometry y="93.33333333333333" width="96.66666666666666" height="93.33333333333333" as="geometry"/>
                </mxCell>
                <mxCell id="591" value="" style="verticalLabelPosition=bottom;shadow=0;dashed=0;align=center;html=1;verticalAlign=top;strokeWidth=1;shape=mxgraph.mockup.containers.userMale;strokeColor=#666666;strokeColor2=#008cff;" vertex="1" parent="586">
                    <mxGeometry x="96.66666666666666" y="93.33333333333333" width="96.66666666666666" height="93.33333333333333" as="geometry"/>
                </mxCell>
                <mxCell id="592" value="" style="verticalLabelPosition=bottom;shadow=0;dashed=0;align=center;html=1;verticalAlign=top;strokeWidth=1;shape=mxgraph.mockup.containers.userMale;strokeColor=#666666;strokeColor2=#008cff;" vertex="1" parent="586">
                    <mxGeometry x="193.33333333333331" y="93.33333333333333" width="96.66666666666666" height="93.33333333333333" as="geometry"/>
                </mxCell>
                <mxCell id="593" value="" style="verticalLabelPosition=bottom;shadow=0;dashed=0;align=center;html=1;verticalAlign=top;strokeWidth=1;shape=mxgraph.mockup.containers.userMale;strokeColor=#666666;strokeColor2=#008cff;" vertex="1" parent="586">
                    <mxGeometry x="193.33333333333331" y="186.66666666666666" width="96.66666666666666" height="93.33333333333333" as="geometry"/>
                </mxCell>
                <mxCell id="594" value="" style="verticalLabelPosition=bottom;shadow=0;dashed=0;align=center;html=1;verticalAlign=top;strokeWidth=1;shape=mxgraph.mockup.containers.userMale;strokeColor=#666666;strokeColor2=#008cff;direction=south;" vertex="1" parent="586">
                    <mxGeometry x="94.23921602939889" y="186.66666666666666" width="101.49619389272901" height="91.11666666666666" as="geometry"/>
                </mxCell>
                <mxCell id="595" value="" style="verticalLabelPosition=bottom;shadow=0;dashed=0;align=center;html=1;verticalAlign=top;strokeWidth=1;shape=mxgraph.mockup.containers.userMale;strokeColor=#666666;strokeColor2=#008cff;" vertex="1" parent="586">
                    <mxGeometry y="186.66666666666666" width="96.66666666666666" height="93.33333333333333" as="geometry"/>
                </mxCell>
                <mxCell id="601" value="" style="verticalLabelPosition=bottom;shadow=0;dashed=0;align=center;html=1;verticalAlign=top;strokeWidth=1;shape=mxgraph.mockup.containers.videoPlayer;strokeColor=#666666;strokeColor2=#008cff;strokeColor3=#c4c4c4;textColor=#666666;fillColor2=#008cff;barHeight=30;barPos=20;" vertex="1" parent="583">
                    <mxGeometry x="100" y="480" width="430" height="330" as="geometry"/>
                </mxCell>
                <mxCell id="602" value="" style="group" vertex="1" connectable="0" parent="583">
                    <mxGeometry x="180" y="490" width="290" height="280" as="geometry"/>
                </mxCell>
                <mxCell id="603" value="" style="verticalLabelPosition=bottom;shadow=0;dashed=0;align=center;html=1;verticalAlign=top;strokeWidth=1;shape=mxgraph.mockup.containers.userMale;strokeColor=#666666;strokeColor2=#008cff;" vertex="1" parent="602">
                    <mxGeometry width="96.66666666666666" height="93.33333333333333" as="geometry"/>
                </mxCell>
                <mxCell id="604" value="" style="verticalLabelPosition=bottom;shadow=0;dashed=0;align=center;html=1;verticalAlign=top;strokeWidth=1;shape=mxgraph.mockup.containers.userMale;strokeColor=#666666;strokeColor2=#008cff;" vertex="1" parent="602">
                    <mxGeometry x="96.66666666666666" width="96.66666666666666" height="93.33333333333333" as="geometry"/>
                </mxCell>
                <mxCell id="605" value="" style="verticalLabelPosition=bottom;shadow=0;dashed=0;align=center;html=1;verticalAlign=top;strokeWidth=1;shape=mxgraph.mockup.containers.userMale;strokeColor=#666666;strokeColor2=#008cff;" vertex="1" parent="602">
                    <mxGeometry x="193.33333333333331" width="96.66666666666666" height="93.33333333333333" as="geometry"/>
                </mxCell>
                <mxCell id="606" value="" style="verticalLabelPosition=bottom;shadow=0;dashed=0;align=center;html=1;verticalAlign=top;strokeWidth=1;shape=mxgraph.mockup.containers.userMale;strokeColor=#666666;strokeColor2=#008cff;" vertex="1" parent="602">
                    <mxGeometry y="93.33333333333333" width="96.66666666666666" height="93.33333333333333" as="geometry"/>
                </mxCell>
                <mxCell id="607" value="" style="verticalLabelPosition=bottom;shadow=0;dashed=0;align=center;html=1;verticalAlign=top;strokeWidth=1;shape=mxgraph.mockup.containers.userMale;strokeColor=#666666;strokeColor2=#008cff;" vertex="1" parent="602">
                    <mxGeometry x="96.66666666666666" y="93.33333333333333" width="96.66666666666666" height="93.33333333333333" as="geometry"/>
                </mxCell>
                <mxCell id="608" value="" style="verticalLabelPosition=bottom;shadow=0;dashed=0;align=center;html=1;verticalAlign=top;strokeWidth=1;shape=mxgraph.mockup.containers.userMale;strokeColor=#666666;strokeColor2=#008cff;" vertex="1" parent="602">
                    <mxGeometry x="193.33333333333331" y="93.33333333333333" width="96.66666666666666" height="93.33333333333333" as="geometry"/>
                </mxCell>
                <mxCell id="609" value="" style="verticalLabelPosition=bottom;shadow=0;dashed=0;align=center;html=1;verticalAlign=top;strokeWidth=1;shape=mxgraph.mockup.containers.userMale;strokeColor=#666666;strokeColor2=#008cff;" vertex="1" parent="602">
                    <mxGeometry x="193.33333333333331" y="186.66666666666666" width="96.66666666666666" height="93.33333333333333" as="geometry"/>
                </mxCell>
                <mxCell id="610" value="" style="verticalLabelPosition=bottom;shadow=0;dashed=0;align=center;html=1;verticalAlign=top;strokeWidth=1;shape=mxgraph.mockup.containers.userMale;strokeColor=#666666;strokeColor2=#008cff;direction=south;" vertex="1" parent="602">
                    <mxGeometry x="94.23921602939889" y="186.66666666666666" width="101.49619389272901" height="91.11666666666666" as="geometry"/>
                </mxCell>
                <mxCell id="611" value="" style="verticalLabelPosition=bottom;shadow=0;dashed=0;align=center;html=1;verticalAlign=top;strokeWidth=1;shape=mxgraph.mockup.containers.userMale;strokeColor=#666666;strokeColor2=#008cff;" vertex="1" parent="602">
                    <mxGeometry y="186.66666666666666" width="96.66666666666666" height="93.33333333333333" as="geometry"/>
                </mxCell>
                <mxCell id="618" value="IVS Player" style="html=1;shadow=0;dashed=0;shape=mxgraph.bootstrap.rrect;rSize=5;strokeColor=#001DBC;strokeWidth=1;fillColor=#0050ef;fontColor=#ffffff;whiteSpace=wrap;align=left;verticalAlign=middle;spacingLeft=0;fontStyle=1;fontSize=14;spacing=5;" vertex="1" parent="583">
                    <mxGeometry x="100" y="160" width="80" height="20" as="geometry"/>
                </mxCell>
                <mxCell id="619" value="IVS Player" style="html=1;shadow=0;dashed=0;shape=mxgraph.bootstrap.rrect;rSize=5;strokeColor=#A50040;strokeWidth=1;fillColor=#d80073;fontColor=#ffffff;whiteSpace=wrap;align=left;verticalAlign=middle;spacingLeft=0;fontStyle=1;fontSize=14;spacing=5;" vertex="1" parent="583">
                    <mxGeometry x="105" y="490" width="80" height="20" as="geometry"/>
                </mxCell>
                <mxCell id="282" value="ZOOM" style="strokeWidth=1;shadow=0;dashed=0;align=center;html=1;shape=mxgraph.mockup.containers.window;align=left;verticalAlign=top;spacingLeft=8;strokeColor2=#008cff;strokeColor3=#c4c4c4;fontColor=#666666;mainText=;fontSize=17;labelBackgroundColor=none;" parent="1" vertex="1">
                    <mxGeometry x="155" y="900" width="925" height="930" as="geometry"/>
                </mxCell>
                <mxCell id="383" value="" style="strokeWidth=1;shadow=0;dashed=0;align=center;html=1;shape=mxgraph.mockup.containers.browserWindow;rSize=0;strokeColor=#666666;strokeColor2=#008cff;strokeColor3=#c4c4c4;mainText=,;recursiveResize=0;fontColor=#000000;" parent="1" vertex="1">
                    <mxGeometry x="190" y="950" width="300" height="410" as="geometry"/>
                </mxCell>
                <mxCell id="384" value="Tab1" style="strokeWidth=1;shadow=0;dashed=0;align=center;html=1;shape=mxgraph.mockup.containers.anchor;fontSize=17;fontColor=#666666;align=left;" parent="383" vertex="1">
                    <mxGeometry x="60" y="12" width="110" height="26" as="geometry"/>
                </mxCell>
                <mxCell id="385" value="https://www.draw.io" style="strokeWidth=1;shadow=0;dashed=0;align=center;html=1;shape=mxgraph.mockup.containers.anchor;rSize=0;fontSize=17;fontColor=#666666;align=left;" parent="383" vertex="1">
                    <mxGeometry x="130" y="60" width="250" height="26" as="geometry"/>
                </mxCell>
                <mxCell id="386" value="" style="group" parent="383" vertex="1" connectable="0">
                    <mxGeometry y="110" width="300" height="300" as="geometry"/>
                </mxCell>
                <mxCell id="387" value="" style="verticalLabelPosition=bottom;shadow=0;dashed=0;align=center;html=1;verticalAlign=top;strokeWidth=1;shape=mxgraph.mockup.containers.userMale;strokeColor=#666666;strokeColor2=#008cff;" parent="386" vertex="1">
                    <mxGeometry width="99.99999999999999" height="100" as="geometry"/>
                </mxCell>
                <mxCell id="388" value="" style="verticalLabelPosition=bottom;shadow=0;dashed=0;align=center;html=1;verticalAlign=top;strokeWidth=1;shape=mxgraph.mockup.containers.userMale;strokeColor=#666666;strokeColor2=#008cff;" parent="386" vertex="1">
                    <mxGeometry x="99.99999999999999" width="99.99999999999999" height="100" as="geometry"/>
                </mxCell>
                <mxCell id="389" value="" style="verticalLabelPosition=bottom;shadow=0;dashed=0;align=center;html=1;verticalAlign=top;strokeWidth=1;shape=mxgraph.mockup.containers.userMale;strokeColor=#666666;strokeColor2=#008cff;" parent="386" vertex="1">
                    <mxGeometry x="199.99999999999997" width="99.99999999999999" height="100" as="geometry"/>
                </mxCell>
                <mxCell id="390" value="" style="verticalLabelPosition=bottom;shadow=0;dashed=0;align=center;html=1;verticalAlign=top;strokeWidth=1;shape=mxgraph.mockup.containers.userMale;strokeColor=#666666;strokeColor2=#008cff;" parent="386" vertex="1">
                    <mxGeometry y="100" width="99.99999999999999" height="100" as="geometry"/>
                </mxCell>
                <mxCell id="391" value="" style="verticalLabelPosition=bottom;shadow=0;dashed=0;align=center;html=1;verticalAlign=top;strokeWidth=1;shape=mxgraph.mockup.containers.userMale;strokeColor=#666666;strokeColor2=#008cff;" parent="386" vertex="1">
                    <mxGeometry x="99.99999999999999" y="100" width="99.99999999999999" height="100" as="geometry"/>
                </mxCell>
                <mxCell id="392" value="" style="verticalLabelPosition=bottom;shadow=0;dashed=0;align=center;html=1;verticalAlign=top;strokeWidth=1;shape=mxgraph.mockup.containers.userMale;strokeColor=#666666;strokeColor2=#008cff;" parent="386" vertex="1">
                    <mxGeometry x="199.99999999999997" y="100" width="99.99999999999999" height="100" as="geometry"/>
                </mxCell>
                <mxCell id="393" value="" style="verticalLabelPosition=bottom;shadow=0;dashed=0;align=center;html=1;verticalAlign=top;strokeWidth=1;shape=mxgraph.mockup.containers.userMale;strokeColor=#666666;strokeColor2=#008cff;" parent="386" vertex="1">
                    <mxGeometry x="199.99999999999997" y="200" width="99.99999999999999" height="100" as="geometry"/>
                </mxCell>
                <mxCell id="394" value="" style="verticalLabelPosition=bottom;shadow=0;dashed=0;align=center;html=1;verticalAlign=top;strokeWidth=1;shape=mxgraph.mockup.containers.userMale;strokeColor=#666666;strokeColor2=#008cff;direction=south;" parent="386" vertex="1">
                    <mxGeometry x="97.48884416834368" y="200" width="104.9960626476507" height="97.62499999999999" as="geometry"/>
                </mxCell>
                <mxCell id="395" value="" style="verticalLabelPosition=bottom;shadow=0;dashed=0;align=center;html=1;verticalAlign=top;strokeWidth=1;shape=mxgraph.mockup.containers.userMale;strokeColor=#666666;strokeColor2=#008cff;" parent="386" vertex="1">
                    <mxGeometry y="200" width="99.99999999999999" height="100" as="geometry"/>
                </mxCell>
                <mxCell id="2" value="閲覧用画面" style="strokeWidth=1;shadow=0;dashed=0;align=center;html=1;shape=mxgraph.mockup.containers.window;align=left;verticalAlign=top;spacingLeft=8;strokeColor2=#008cff;strokeColor3=#c4c4c4;fontColor=#666666;mainText=;fontSize=17;labelBackgroundColor=none;" parent="1" vertex="1">
                    <mxGeometry x="160" y="180" width="760" height="500" as="geometry"/>
                </mxCell>
                <mxCell id="4" value="&lt;h1&gt;案1 サイト完結&lt;/h1&gt;&lt;p&gt;配信ストリームを複数用意する&lt;/p&gt;&lt;p&gt;それを管理画面で一括で見せる&lt;/p&gt;" style="text;html=1;strokeColor=none;fillColor=none;spacing=5;spacingTop=-20;whiteSpace=wrap;overflow=hidden;rounded=0;" parent="1" vertex="1">
                    <mxGeometry x="-745" y="70" width="270" height="120" as="geometry"/>
                </mxCell>
                <mxCell id="32" value="" style="group" parent="1" vertex="1" connectable="0">
                    <mxGeometry x="220" y="250" width="170" height="190" as="geometry"/>
                </mxCell>
                <mxCell id="21" value="1ch" style="strokeWidth=1;shadow=0;dashed=0;align=center;html=1;shape=mxgraph.mockup.containers.window;align=left;verticalAlign=top;spacingLeft=8;strokeColor2=#008cff;strokeColor3=#c4c4c4;fontColor=#666666;mainText=;fontSize=17;labelBackgroundColor=none;" parent="32" vertex="1">
                    <mxGeometry width="170" height="190" as="geometry"/>
                </mxCell>
                <mxCell id="31" value="" style="group" parent="32" vertex="1" connectable="0">
                    <mxGeometry x="30" y="50" width="114.29" height="120" as="geometry"/>
                </mxCell>
                <mxCell id="22" value="" style="verticalLabelPosition=bottom;shadow=0;dashed=0;align=center;html=1;verticalAlign=top;strokeWidth=1;shape=mxgraph.mockup.containers.userMale;strokeColor=#666666;strokeColor2=#008cff;" parent="31" vertex="1">
                    <mxGeometry width="38.096666666666664" height="40" as="geometry"/>
                </mxCell>
                <mxCell id="23" value="" style="verticalLabelPosition=bottom;shadow=0;dashed=0;align=center;html=1;verticalAlign=top;strokeWidth=1;shape=mxgraph.mockup.containers.userMale;strokeColor=#666666;strokeColor2=#008cff;" parent="31" vertex="1">
                    <mxGeometry x="38.096666666666664" width="38.096666666666664" height="40" as="geometry"/>
                </mxCell>
                <mxCell id="24" value="" style="verticalLabelPosition=bottom;shadow=0;dashed=0;align=center;html=1;verticalAlign=top;strokeWidth=1;shape=mxgraph.mockup.containers.userMale;strokeColor=#666666;strokeColor2=#008cff;" parent="31" vertex="1">
                    <mxGeometry x="76.19333333333333" width="38.096666666666664" height="40" as="geometry"/>
                </mxCell>
                <mxCell id="25" value="" style="verticalLabelPosition=bottom;shadow=0;dashed=0;align=center;html=1;verticalAlign=top;strokeWidth=1;shape=mxgraph.mockup.containers.userMale;strokeColor=#666666;strokeColor2=#008cff;" parent="31" vertex="1">
                    <mxGeometry y="40" width="38.096666666666664" height="40" as="geometry"/>
                </mxCell>
                <mxCell id="26" value="" style="verticalLabelPosition=bottom;shadow=0;dashed=0;align=center;html=1;verticalAlign=top;strokeWidth=1;shape=mxgraph.mockup.containers.userMale;strokeColor=#666666;strokeColor2=#008cff;" parent="31" vertex="1">
                    <mxGeometry x="38.096666666666664" y="40" width="38.096666666666664" height="40" as="geometry"/>
                </mxCell>
                <mxCell id="27" value="" style="verticalLabelPosition=bottom;shadow=0;dashed=0;align=center;html=1;verticalAlign=top;strokeWidth=1;shape=mxgraph.mockup.containers.userMale;strokeColor=#666666;strokeColor2=#008cff;" parent="31" vertex="1">
                    <mxGeometry x="76.19333333333333" y="40" width="38.096666666666664" height="40" as="geometry"/>
                </mxCell>
                <mxCell id="28" value="" style="verticalLabelPosition=bottom;shadow=0;dashed=0;align=center;html=1;verticalAlign=top;strokeWidth=1;shape=mxgraph.mockup.containers.userMale;strokeColor=#666666;strokeColor2=#008cff;" parent="31" vertex="1">
                    <mxGeometry x="76.19333333333333" y="80" width="38.096666666666664" height="40" as="geometry"/>
                </mxCell>
                <mxCell id="29" value="" style="verticalLabelPosition=bottom;shadow=0;dashed=0;align=center;html=1;verticalAlign=top;strokeWidth=1;shape=mxgraph.mockup.containers.userMale;strokeColor=#666666;strokeColor2=#008cff;direction=south;" parent="31" vertex="1">
                    <mxGeometry x="37.144999999999996" y="80.95166666666667" width="40" height="38.096666666666664" as="geometry"/>
                </mxCell>
                <mxCell id="30" value="" style="verticalLabelPosition=bottom;shadow=0;dashed=0;align=center;html=1;verticalAlign=top;strokeWidth=1;shape=mxgraph.mockup.containers.userMale;strokeColor=#666666;strokeColor2=#008cff;" parent="31" vertex="1">
                    <mxGeometry y="80" width="38.096666666666664" height="40" as="geometry"/>
                </mxCell>
                <mxCell id="33" value="" style="group" parent="1" vertex="1" connectable="0">
                    <mxGeometry x="390" y="250" width="170" height="190" as="geometry"/>
                </mxCell>
                <mxCell id="34" value="2ch" style="strokeWidth=1;shadow=0;dashed=0;align=center;html=1;shape=mxgraph.mockup.containers.window;align=left;verticalAlign=top;spacingLeft=8;strokeColor2=#008cff;strokeColor3=#c4c4c4;fontColor=#666666;mainText=;fontSize=17;labelBackgroundColor=none;" parent="33" vertex="1">
                    <mxGeometry width="170" height="190" as="geometry"/>
                </mxCell>
                <mxCell id="35" value="" style="group" parent="33" vertex="1" connectable="0">
                    <mxGeometry x="30" y="50" width="114.29" height="120" as="geometry"/>
                </mxCell>
                <mxCell id="36" value="" style="verticalLabelPosition=bottom;shadow=0;dashed=0;align=center;html=1;verticalAlign=top;strokeWidth=1;shape=mxgraph.mockup.containers.userMale;strokeColor=#666666;strokeColor2=#008cff;" parent="35" vertex="1">
                    <mxGeometry width="38.096666666666664" height="40" as="geometry"/>
                </mxCell>
                <mxCell id="37" value="" style="verticalLabelPosition=bottom;shadow=0;dashed=0;align=center;html=1;verticalAlign=top;strokeWidth=1;shape=mxgraph.mockup.containers.userMale;strokeColor=#666666;strokeColor2=#008cff;" parent="35" vertex="1">
                    <mxGeometry x="38.096666666666664" width="38.096666666666664" height="40" as="geometry"/>
                </mxCell>
                <mxCell id="38" value="" style="verticalLabelPosition=bottom;shadow=0;dashed=0;align=center;html=1;verticalAlign=top;strokeWidth=1;shape=mxgraph.mockup.containers.userMale;strokeColor=#666666;strokeColor2=#008cff;" parent="35" vertex="1">
                    <mxGeometry x="76.19333333333333" width="38.096666666666664" height="40" as="geometry"/>
                </mxCell>
                <mxCell id="39" value="" style="verticalLabelPosition=bottom;shadow=0;dashed=0;align=center;html=1;verticalAlign=top;strokeWidth=1;shape=mxgraph.mockup.containers.userMale;strokeColor=#666666;strokeColor2=#008cff;" parent="35" vertex="1">
                    <mxGeometry y="40" width="38.096666666666664" height="40" as="geometry"/>
                </mxCell>
                <mxCell id="40" value="" style="verticalLabelPosition=bottom;shadow=0;dashed=0;align=center;html=1;verticalAlign=top;strokeWidth=1;shape=mxgraph.mockup.containers.userMale;strokeColor=#666666;strokeColor2=#008cff;" parent="35" vertex="1">
                    <mxGeometry x="38.096666666666664" y="40" width="38.096666666666664" height="40" as="geometry"/>
                </mxCell>
                <mxCell id="41" value="" style="verticalLabelPosition=bottom;shadow=0;dashed=0;align=center;html=1;verticalAlign=top;strokeWidth=1;shape=mxgraph.mockup.containers.userMale;strokeColor=#666666;strokeColor2=#008cff;" parent="35" vertex="1">
                    <mxGeometry x="76.19333333333333" y="40" width="38.096666666666664" height="40" as="geometry"/>
                </mxCell>
                <mxCell id="42" value="" style="verticalLabelPosition=bottom;shadow=0;dashed=0;align=center;html=1;verticalAlign=top;strokeWidth=1;shape=mxgraph.mockup.containers.userMale;strokeColor=#666666;strokeColor2=#008cff;" parent="35" vertex="1">
                    <mxGeometry x="76.19333333333333" y="80" width="38.096666666666664" height="40" as="geometry"/>
                </mxCell>
                <mxCell id="43" value="" style="verticalLabelPosition=bottom;shadow=0;dashed=0;align=center;html=1;verticalAlign=top;strokeWidth=1;shape=mxgraph.mockup.containers.userMale;strokeColor=#666666;strokeColor2=#008cff;direction=south;" parent="35" vertex="1">
                    <mxGeometry x="37.144999999999996" y="80.95166666666667" width="40" height="38.096666666666664" as="geometry"/>
                </mxCell>
                <mxCell id="44" value="" style="verticalLabelPosition=bottom;shadow=0;dashed=0;align=center;html=1;verticalAlign=top;strokeWidth=1;shape=mxgraph.mockup.containers.userMale;strokeColor=#666666;strokeColor2=#008cff;" parent="35" vertex="1">
                    <mxGeometry y="80" width="38.096666666666664" height="40" as="geometry"/>
                </mxCell>
                <mxCell id="45" value="" style="group" parent="1" vertex="1" connectable="0">
                    <mxGeometry x="220" y="440" width="170" height="190" as="geometry"/>
                </mxCell>
                <mxCell id="46" value="3ch" style="strokeWidth=1;shadow=0;dashed=0;align=center;html=1;shape=mxgraph.mockup.containers.window;align=left;verticalAlign=top;spacingLeft=8;strokeColor2=#008cff;strokeColor3=#c4c4c4;fontColor=#666666;mainText=;fontSize=17;labelBackgroundColor=none;" parent="45" vertex="1">
                    <mxGeometry width="170" height="190" as="geometry"/>
                </mxCell>
                <mxCell id="47" value="" style="group" parent="45" vertex="1" connectable="0">
                    <mxGeometry x="30" y="50" width="114.29" height="120" as="geometry"/>
                </mxCell>
                <mxCell id="48" value="" style="verticalLabelPosition=bottom;shadow=0;dashed=0;align=center;html=1;verticalAlign=top;strokeWidth=1;shape=mxgraph.mockup.containers.userMale;strokeColor=#666666;strokeColor2=#008cff;" parent="47" vertex="1">
                    <mxGeometry width="38.096666666666664" height="40" as="geometry"/>
                </mxCell>
                <mxCell id="49" value="" style="verticalLabelPosition=bottom;shadow=0;dashed=0;align=center;html=1;verticalAlign=top;strokeWidth=1;shape=mxgraph.mockup.containers.userMale;strokeColor=#666666;strokeColor2=#008cff;" parent="47" vertex="1">
                    <mxGeometry x="38.096666666666664" width="38.096666666666664" height="40" as="geometry"/>
                </mxCell>
                <mxCell id="50" value="" style="verticalLabelPosition=bottom;shadow=0;dashed=0;align=center;html=1;verticalAlign=top;strokeWidth=1;shape=mxgraph.mockup.containers.userMale;strokeColor=#666666;strokeColor2=#008cff;" parent="47" vertex="1">
                    <mxGeometry x="76.19333333333333" width="38.096666666666664" height="40" as="geometry"/>
                </mxCell>
                <mxCell id="51" value="" style="verticalLabelPosition=bottom;shadow=0;dashed=0;align=center;html=1;verticalAlign=top;strokeWidth=1;shape=mxgraph.mockup.containers.userMale;strokeColor=#666666;strokeColor2=#008cff;" parent="47" vertex="1">
                    <mxGeometry y="40" width="38.096666666666664" height="40" as="geometry"/>
                </mxCell>
                <mxCell id="52" value="" style="verticalLabelPosition=bottom;shadow=0;dashed=0;align=center;html=1;verticalAlign=top;strokeWidth=1;shape=mxgraph.mockup.containers.userMale;strokeColor=#666666;strokeColor2=#008cff;" parent="47" vertex="1">
                    <mxGeometry x="38.096666666666664" y="40" width="38.096666666666664" height="40" as="geometry"/>
                </mxCell>
                <mxCell id="53" value="" style="verticalLabelPosition=bottom;shadow=0;dashed=0;align=center;html=1;verticalAlign=top;strokeWidth=1;shape=mxgraph.mockup.containers.userMale;strokeColor=#666666;strokeColor2=#008cff;" parent="47" vertex="1">
                    <mxGeometry x="76.19333333333333" y="40" width="38.096666666666664" height="40" as="geometry"/>
                </mxCell>
                <mxCell id="54" value="" style="verticalLabelPosition=bottom;shadow=0;dashed=0;align=center;html=1;verticalAlign=top;strokeWidth=1;shape=mxgraph.mockup.containers.userMale;strokeColor=#666666;strokeColor2=#008cff;" parent="47" vertex="1">
                    <mxGeometry x="76.19333333333333" y="80" width="38.096666666666664" height="40" as="geometry"/>
                </mxCell>
                <mxCell id="55" value="" style="verticalLabelPosition=bottom;shadow=0;dashed=0;align=center;html=1;verticalAlign=top;strokeWidth=1;shape=mxgraph.mockup.containers.userMale;strokeColor=#666666;strokeColor2=#008cff;direction=south;" parent="47" vertex="1">
                    <mxGeometry x="37.144999999999996" y="80.95166666666667" width="40" height="38.096666666666664" as="geometry"/>
                </mxCell>
                <mxCell id="56" value="" style="verticalLabelPosition=bottom;shadow=0;dashed=0;align=center;html=1;verticalAlign=top;strokeWidth=1;shape=mxgraph.mockup.containers.userMale;strokeColor=#666666;strokeColor2=#008cff;" parent="47" vertex="1">
                    <mxGeometry y="80" width="38.096666666666664" height="40" as="geometry"/>
                </mxCell>
                <mxCell id="57" value="" style="group" parent="1" vertex="1" connectable="0">
                    <mxGeometry x="390" y="440" width="170" height="190" as="geometry"/>
                </mxCell>
                <mxCell id="58" value="4ch" style="strokeWidth=1;shadow=0;dashed=0;align=center;html=1;shape=mxgraph.mockup.containers.window;align=left;verticalAlign=top;spacingLeft=8;strokeColor2=#008cff;strokeColor3=#c4c4c4;fontColor=#666666;mainText=;fontSize=17;labelBackgroundColor=none;" parent="57" vertex="1">
                    <mxGeometry width="170" height="190" as="geometry"/>
                </mxCell>
                <mxCell id="59" value="" style="group" parent="57" vertex="1" connectable="0">
                    <mxGeometry x="30" y="50" width="114.29" height="120" as="geometry"/>
                </mxCell>
                <mxCell id="60" value="" style="verticalLabelPosition=bottom;shadow=0;dashed=0;align=center;html=1;verticalAlign=top;strokeWidth=1;shape=mxgraph.mockup.containers.userMale;strokeColor=#666666;strokeColor2=#008cff;" parent="59" vertex="1">
                    <mxGeometry width="38.096666666666664" height="40" as="geometry"/>
                </mxCell>
                <mxCell id="61" value="" style="verticalLabelPosition=bottom;shadow=0;dashed=0;align=center;html=1;verticalAlign=top;strokeWidth=1;shape=mxgraph.mockup.containers.userMale;strokeColor=#666666;strokeColor2=#008cff;" parent="59" vertex="1">
                    <mxGeometry x="38.096666666666664" width="38.096666666666664" height="40" as="geometry"/>
                </mxCell>
                <mxCell id="62" value="" style="verticalLabelPosition=bottom;shadow=0;dashed=0;align=center;html=1;verticalAlign=top;strokeWidth=1;shape=mxgraph.mockup.containers.userMale;strokeColor=#666666;strokeColor2=#008cff;" parent="59" vertex="1">
                    <mxGeometry x="76.19333333333333" width="38.096666666666664" height="40" as="geometry"/>
                </mxCell>
                <mxCell id="63" value="" style="verticalLabelPosition=bottom;shadow=0;dashed=0;align=center;html=1;verticalAlign=top;strokeWidth=1;shape=mxgraph.mockup.containers.userMale;strokeColor=#666666;strokeColor2=#008cff;" parent="59" vertex="1">
                    <mxGeometry y="40" width="38.096666666666664" height="40" as="geometry"/>
                </mxCell>
                <mxCell id="64" value="" style="verticalLabelPosition=bottom;shadow=0;dashed=0;align=center;html=1;verticalAlign=top;strokeWidth=1;shape=mxgraph.mockup.containers.userMale;strokeColor=#666666;strokeColor2=#008cff;" parent="59" vertex="1">
                    <mxGeometry x="38.096666666666664" y="40" width="38.096666666666664" height="40" as="geometry"/>
                </mxCell>
                <mxCell id="65" value="" style="verticalLabelPosition=bottom;shadow=0;dashed=0;align=center;html=1;verticalAlign=top;strokeWidth=1;shape=mxgraph.mockup.containers.userMale;strokeColor=#666666;strokeColor2=#008cff;" parent="59" vertex="1">
                    <mxGeometry x="76.19333333333333" y="40" width="38.096666666666664" height="40" as="geometry"/>
                </mxCell>
                <mxCell id="66" value="" style="verticalLabelPosition=bottom;shadow=0;dashed=0;align=center;html=1;verticalAlign=top;strokeWidth=1;shape=mxgraph.mockup.containers.userMale;strokeColor=#666666;strokeColor2=#008cff;" parent="59" vertex="1">
                    <mxGeometry x="76.19333333333333" y="80" width="38.096666666666664" height="40" as="geometry"/>
                </mxCell>
                <mxCell id="67" value="" style="verticalLabelPosition=bottom;shadow=0;dashed=0;align=center;html=1;verticalAlign=top;strokeWidth=1;shape=mxgraph.mockup.containers.userMale;strokeColor=#666666;strokeColor2=#008cff;direction=south;" parent="59" vertex="1">
                    <mxGeometry x="37.144999999999996" y="80.95166666666667" width="40" height="38.096666666666664" as="geometry"/>
                </mxCell>
                <mxCell id="68" value="" style="verticalLabelPosition=bottom;shadow=0;dashed=0;align=center;html=1;verticalAlign=top;strokeWidth=1;shape=mxgraph.mockup.containers.userMale;strokeColor=#666666;strokeColor2=#008cff;" parent="59" vertex="1">
                    <mxGeometry y="80" width="38.096666666666664" height="40" as="geometry"/>
                </mxCell>
                <mxCell id="83" value="" style="group" parent="1" vertex="1" connectable="0">
                    <mxGeometry x="-740" y="210" width="260" height="350" as="geometry"/>
                </mxCell>
                <mxCell id="70" value="配信ch選択" style="strokeWidth=1;shadow=0;dashed=0;align=center;html=1;shape=mxgraph.mockup.containers.window;align=left;verticalAlign=top;spacingLeft=8;strokeColor2=#008cff;strokeColor3=#c4c4c4;fontColor=#666666;mainText=;fontSize=17;labelBackgroundColor=none;" parent="83" vertex="1">
                    <mxGeometry width="260" height="350" as="geometry"/>
                </mxCell>
                <mxCell id="143" value="1ch 配信" style="html=1;shadow=0;dashed=0;shape=mxgraph.bootstrap.rrect;rSize=5;strokeColor=#33A64C;strokeWidth=1;fillColor=none;fontColor=#33A64C;whiteSpace=wrap;align=center;verticalAlign=middle;spacingLeft=0;fontStyle=0;fontSize=16;spacing=5;" parent="83" vertex="1">
                    <mxGeometry x="65" y="80" width="130" height="40" as="geometry"/>
                </mxCell>
                <mxCell id="144" value="2ch 配信" style="html=1;shadow=0;dashed=0;shape=mxgraph.bootstrap.rrect;rSize=5;strokeColor=#DB2843;strokeWidth=1;fillColor=none;fontColor=#DB2843;whiteSpace=wrap;align=center;verticalAlign=middle;spacingLeft=0;fontStyle=0;fontSize=16;spacing=5;" parent="83" vertex="1">
                    <mxGeometry x="65" y="140" width="130" height="40" as="geometry"/>
                </mxCell>
                <mxCell id="145" value="3ch 配信" style="html=1;shadow=0;dashed=0;shape=mxgraph.bootstrap.rrect;rSize=5;strokeColor=#FFBC26;strokeWidth=1;fillColor=none;fontColor=#FFBC26;whiteSpace=wrap;align=center;verticalAlign=middle;spacingLeft=0;fontStyle=0;fontSize=16;spacing=5;" parent="83" vertex="1">
                    <mxGeometry x="65" y="200" width="130" height="40" as="geometry"/>
                </mxCell>
                <mxCell id="146" value="4ch 配信" style="html=1;shadow=0;dashed=0;shape=mxgraph.bootstrap.rrect;rSize=5;strokeColor=#1CA5B8;strokeWidth=1;fillColor=none;fontColor=#1CA5B8;whiteSpace=wrap;align=center;verticalAlign=middle;spacingLeft=0;fontStyle=0;fontSize=16;spacing=5;" parent="83" vertex="1">
                    <mxGeometry x="65" y="260" width="130" height="40" as="geometry"/>
                </mxCell>
                <mxCell id="110" value="" style="group" parent="1" vertex="1" connectable="0">
                    <mxGeometry x="-370" y="160" width="260" height="260" as="geometry"/>
                </mxCell>
                <mxCell id="84" value="" style="group;fillColor=#b0e3e6;strokeColor=#0e8088;" parent="110" vertex="1" connectable="0">
                    <mxGeometry width="260" height="260" as="geometry"/>
                </mxCell>
                <mxCell id="85" value="1ch 配信" style="strokeWidth=1;shadow=0;dashed=0;align=center;html=1;shape=mxgraph.mockup.containers.window;align=left;verticalAlign=top;spacingLeft=8;strokeColor2=#008cff;strokeColor3=#c4c4c4;fontColor=#666666;mainText=;fontSize=17;labelBackgroundColor=none;" parent="84" vertex="1">
                    <mxGeometry width="260" height="260" as="geometry"/>
                </mxCell>
                <mxCell id="98" value="" style="group" parent="110" vertex="1" connectable="0">
                    <mxGeometry x="70" y="80" width="114.29" height="120" as="geometry"/>
                </mxCell>
                <mxCell id="99" value="" style="verticalLabelPosition=bottom;shadow=0;dashed=0;align=center;html=1;verticalAlign=top;strokeWidth=1;shape=mxgraph.mockup.containers.userMale;strokeColor=#666666;strokeColor2=#008cff;" parent="98" vertex="1">
                    <mxGeometry width="38.096666666666664" height="40" as="geometry"/>
                </mxCell>
                <mxCell id="100" value="" style="verticalLabelPosition=bottom;shadow=0;dashed=0;align=center;html=1;verticalAlign=top;strokeWidth=1;shape=mxgraph.mockup.containers.userMale;strokeColor=#666666;strokeColor2=#008cff;" parent="98" vertex="1">
                    <mxGeometry x="38.096666666666664" width="38.096666666666664" height="40" as="geometry"/>
                </mxCell>
                <mxCell id="101" value="" style="verticalLabelPosition=bottom;shadow=0;dashed=0;align=center;html=1;verticalAlign=top;strokeWidth=1;shape=mxgraph.mockup.containers.userMale;strokeColor=#666666;strokeColor2=#008cff;" parent="98" vertex="1">
                    <mxGeometry x="76.19333333333333" width="38.096666666666664" height="40" as="geometry"/>
                </mxCell>
                <mxCell id="102" value="" style="verticalLabelPosition=bottom;shadow=0;dashed=0;align=center;html=1;verticalAlign=top;strokeWidth=1;shape=mxgraph.mockup.containers.userMale;strokeColor=#666666;strokeColor2=#008cff;" parent="98" vertex="1">
                    <mxGeometry y="40" width="38.096666666666664" height="40" as="geometry"/>
                </mxCell>
                <mxCell id="103" value="" style="verticalLabelPosition=bottom;shadow=0;dashed=0;align=center;html=1;verticalAlign=top;strokeWidth=1;shape=mxgraph.mockup.containers.userMale;strokeColor=#666666;strokeColor2=#008cff;" parent="98" vertex="1">
                    <mxGeometry x="38.096666666666664" y="40" width="38.096666666666664" height="40" as="geometry"/>
                </mxCell>
                <mxCell id="104" value="" style="verticalLabelPosition=bottom;shadow=0;dashed=0;align=center;html=1;verticalAlign=top;strokeWidth=1;shape=mxgraph.mockup.containers.userMale;strokeColor=#666666;strokeColor2=#008cff;" parent="98" vertex="1">
                    <mxGeometry x="76.19333333333333" y="40" width="38.096666666666664" height="40" as="geometry"/>
                </mxCell>
                <mxCell id="105" value="" style="verticalLabelPosition=bottom;shadow=0;dashed=0;align=center;html=1;verticalAlign=top;strokeWidth=1;shape=mxgraph.mockup.containers.userMale;strokeColor=#666666;strokeColor2=#008cff;" parent="98" vertex="1">
                    <mxGeometry x="76.19333333333333" y="80" width="38.096666666666664" height="40" as="geometry"/>
                </mxCell>
                <mxCell id="106" value="" style="verticalLabelPosition=bottom;shadow=0;dashed=0;align=center;html=1;verticalAlign=top;strokeWidth=1;shape=mxgraph.mockup.containers.userMale;strokeColor=#666666;strokeColor2=#008cff;direction=south;" parent="98" vertex="1">
                    <mxGeometry x="37.14" y="80" width="40" height="39.05" as="geometry"/>
                </mxCell>
                <mxCell id="107" value="" style="verticalLabelPosition=bottom;shadow=0;dashed=0;align=center;html=1;verticalAlign=top;strokeWidth=1;shape=mxgraph.mockup.containers.userMale;strokeColor=#666666;strokeColor2=#008cff;" parent="98" vertex="1">
                    <mxGeometry y="80" width="38.096666666666664" height="40" as="geometry"/>
                </mxCell>
                <mxCell id="111" value="" style="group" parent="1" vertex="1" connectable="0">
                    <mxGeometry x="-370" y="455" width="260" height="260" as="geometry"/>
                </mxCell>
                <mxCell id="112" value="" style="group" parent="111" vertex="1" connectable="0">
                    <mxGeometry width="260" height="260" as="geometry"/>
                </mxCell>
                <mxCell id="113" value="2ch 配信" style="strokeWidth=1;shadow=0;dashed=0;align=center;html=1;shape=mxgraph.mockup.containers.window;align=left;verticalAlign=top;spacingLeft=8;strokeColor2=#008cff;strokeColor3=#c4c4c4;fontColor=#666666;mainText=;fontSize=17;labelBackgroundColor=none;" parent="112" vertex="1">
                    <mxGeometry width="260" height="260" as="geometry"/>
                </mxCell>
                <mxCell id="114" value="" style="group" parent="111" vertex="1" connectable="0">
                    <mxGeometry x="70" y="80" width="114.29" height="120" as="geometry"/>
                </mxCell>
                <mxCell id="115" value="" style="verticalLabelPosition=bottom;shadow=0;dashed=0;align=center;html=1;verticalAlign=top;strokeWidth=1;shape=mxgraph.mockup.containers.userMale;strokeColor=#666666;strokeColor2=#008cff;" parent="114" vertex="1">
                    <mxGeometry width="38.096666666666664" height="40" as="geometry"/>
                </mxCell>
                <mxCell id="116" value="" style="verticalLabelPosition=bottom;shadow=0;dashed=0;align=center;html=1;verticalAlign=top;strokeWidth=1;shape=mxgraph.mockup.containers.userMale;strokeColor=#666666;strokeColor2=#008cff;" parent="114" vertex="1">
                    <mxGeometry x="38.096666666666664" width="38.096666666666664" height="40" as="geometry"/>
                </mxCell>
                <mxCell id="117" value="" style="verticalLabelPosition=bottom;shadow=0;dashed=0;align=center;html=1;verticalAlign=top;strokeWidth=1;shape=mxgraph.mockup.containers.userMale;strokeColor=#666666;strokeColor2=#008cff;" parent="114" vertex="1">
                    <mxGeometry x="76.19333333333333" width="38.096666666666664" height="40" as="geometry"/>
                </mxCell>
                <mxCell id="118" value="" style="verticalLabelPosition=bottom;shadow=0;dashed=0;align=center;html=1;verticalAlign=top;strokeWidth=1;shape=mxgraph.mockup.containers.userMale;strokeColor=#666666;strokeColor2=#008cff;" parent="114" vertex="1">
                    <mxGeometry y="40" width="38.096666666666664" height="40" as="geometry"/>
                </mxCell>
                <mxCell id="119" value="" style="verticalLabelPosition=bottom;shadow=0;dashed=0;align=center;html=1;verticalAlign=top;strokeWidth=1;shape=mxgraph.mockup.containers.userMale;strokeColor=#666666;strokeColor2=#008cff;" parent="114" vertex="1">
                    <mxGeometry x="38.096666666666664" y="40" width="38.096666666666664" height="40" as="geometry"/>
                </mxCell>
                <mxCell id="120" value="" style="verticalLabelPosition=bottom;shadow=0;dashed=0;align=center;html=1;verticalAlign=top;strokeWidth=1;shape=mxgraph.mockup.containers.userMale;strokeColor=#666666;strokeColor2=#008cff;" parent="114" vertex="1">
                    <mxGeometry x="76.19333333333333" y="40" width="38.096666666666664" height="40" as="geometry"/>
                </mxCell>
                <mxCell id="121" value="" style="verticalLabelPosition=bottom;shadow=0;dashed=0;align=center;html=1;verticalAlign=top;strokeWidth=1;shape=mxgraph.mockup.containers.userMale;strokeColor=#666666;strokeColor2=#008cff;" parent="114" vertex="1">
                    <mxGeometry x="76.19333333333333" y="80" width="38.096666666666664" height="40" as="geometry"/>
                </mxCell>
                <mxCell id="122" value="" style="verticalLabelPosition=bottom;shadow=0;dashed=0;align=center;html=1;verticalAlign=top;strokeWidth=1;shape=mxgraph.mockup.containers.userMale;strokeColor=#666666;strokeColor2=#008cff;direction=south;" parent="114" vertex="1">
                    <mxGeometry x="37.144999999999996" y="80.95166666666667" width="40" height="38.096666666666664" as="geometry"/>
                </mxCell>
                <mxCell id="123" value="" style="verticalLabelPosition=bottom;shadow=0;dashed=0;align=center;html=1;verticalAlign=top;strokeWidth=1;shape=mxgraph.mockup.containers.userMale;strokeColor=#666666;strokeColor2=#008cff;" parent="114" vertex="1">
                    <mxGeometry y="80" width="38.096666666666664" height="40" as="geometry"/>
                </mxCell>
                <mxCell id="124" value="" style="edgeStyle=none;html=1;" parent="1" source="70" target="85" edge="1">
                    <mxGeometry relative="1" as="geometry"/>
                </mxCell>
                <mxCell id="125" value="" style="edgeStyle=none;html=1;" parent="1" source="70" target="85" edge="1">
                    <mxGeometry relative="1" as="geometry"/>
                </mxCell>
                <mxCell id="126" style="edgeStyle=none;html=1;" parent="1" source="70" target="113" edge="1">
                    <mxGeometry relative="1" as="geometry">
                        <mxPoint x="-460" y="390" as="targetPoint"/>
                    </mxGeometry>
                </mxCell>
                <mxCell id="129" style="edgeStyle=none;html=1;entryX=0.006;entryY=0.437;entryDx=0;entryDy=0;entryPerimeter=0;" parent="1" source="127" target="21" edge="1">
                    <mxGeometry relative="1" as="geometry"/>
                </mxCell>
                <mxCell id="127" value="" style="points=[[0,0,0],[0.25,0,0],[0.5,0,0],[0.75,0,0],[1,0,0],[0,1,0],[0.25,1,0],[0.5,1,0],[0.75,1,0],[1,1,0],[0,0.25,0],[0,0.5,0],[0,0.75,0],[1,0.25,0],[1,0.5,0],[1,0.75,0]];outlineConnect=0;fontColor=#232F3E;gradientColor=#FF5252;gradientDirection=north;fillColor=#C7131F;strokeColor=#ffffff;dashed=0;verticalLabelPosition=bottom;verticalAlign=top;align=center;html=1;fontSize=12;fontStyle=0;aspect=fixed;shape=mxgraph.aws4.resourceIcon;resIcon=mxgraph.aws4.chime;" parent="1" vertex="1">
                    <mxGeometry x="-50" y="260" width="78" height="78" as="geometry"/>
                </mxCell>
                <mxCell id="128" value="" style="edgeStyle=none;html=1;" parent="1" source="85" target="127" edge="1">
                    <mxGeometry relative="1" as="geometry"/>
                </mxCell>
                <mxCell id="132" style="edgeStyle=none;html=1;" parent="1" source="130" target="46" edge="1">
                    <mxGeometry relative="1" as="geometry"/>
                </mxCell>
                <mxCell id="130" value="" style="points=[[0,0,0],[0.25,0,0],[0.5,0,0],[0.75,0,0],[1,0,0],[0,1,0],[0.25,1,0],[0.5,1,0],[0.75,1,0],[1,1,0],[0,0.25,0],[0,0.5,0],[0,0.75,0],[1,0.25,0],[1,0.5,0],[1,0.75,0]];outlineConnect=0;fontColor=#232F3E;gradientColor=#FF5252;gradientDirection=north;fillColor=#C7131F;strokeColor=#ffffff;dashed=0;verticalLabelPosition=bottom;verticalAlign=top;align=center;html=1;fontSize=12;fontStyle=0;aspect=fixed;shape=mxgraph.aws4.resourceIcon;resIcon=mxgraph.aws4.chime;" parent="1" vertex="1">
                    <mxGeometry x="-50" y="552" width="78" height="78" as="geometry"/>
                </mxCell>
                <mxCell id="131" value="" style="edgeStyle=none;html=1;" parent="1" source="113" target="130" edge="1">
                    <mxGeometry relative="1" as="geometry"/>
                </mxCell>
                <mxCell id="133" value="&lt;h1&gt;前提&lt;/h1&gt;&lt;div&gt;･ 多分画面を共有してお互いにやってるところが見れるほうがいい&lt;/div&gt;&lt;div&gt;･ 個々でやって、結果だけ見せても面白みに欠ると思う&lt;/div&gt;&lt;div&gt;･ 人数を絞ってリアルタイムで過程を見せたほうが面白いと思う&lt;/div&gt;" style="text;html=1;strokeColor=#6F0000;fillColor=#a20025;spacing=5;spacingTop=-20;whiteSpace=wrap;overflow=hidden;rounded=0;fontColor=#ffffff;" parent="1" vertex="1">
                    <mxGeometry x="-745" y="-70" width="645" height="120" as="geometry"/>
                </mxCell>
                <mxCell id="151" value="Password" style="html=1;shadow=0;dashed=0;shape=mxgraph.bootstrap.rrect;rSize=5;strokeColor=#999999;fillColor=#ffffff;fontColor=#777777;whiteSpace=wrap;align=left;verticalAlign=middle;fontStyle=0;fontSize=14;spacing=15;" parent="1" vertex="1">
                    <mxGeometry x="590" y="250" width="170" height="40" as="geometry"/>
                </mxCell>
                <mxCell id="152" value="投稿" style="html=1;shadow=0;dashed=0;shape=mxgraph.bootstrap.rrect;rSize=5;strokeColor=none;fillColor=#0085FC;fontColor=#ffffff;whiteSpace=wrap;align=center;verticalAlign=middle;fontStyle=0;fontSize=14;spacing=14;" parent="1" vertex="1">
                    <mxGeometry x="770" y="250" width="80" height="40" as="geometry"/>
                </mxCell>
                <mxCell id="160" value="" style="html=1;shadow=0;dashed=0;shape=mxgraph.bootstrap.rrect;rSize=5;strokeColor=#DFDFDF;html=1;whiteSpace=wrap;fillColor=#FFFFFF;fontColor=#000000;" parent="1" vertex="1">
                    <mxGeometry x="590" y="310" width="260" height="320" as="geometry"/>
                </mxCell>
                <mxCell id="165" value="" style="html=1;verticalLabelPosition=bottom;align=center;labelBackgroundColor=#ffffff;verticalAlign=top;strokeWidth=2;strokeColor=#0e8088;shadow=0;dashed=0;shape=mxgraph.ios7.icons.message;fillColor=#b0e3e6;" parent="1" vertex="1">
                    <mxGeometry x="640" y="330" width="190" height="50" as="geometry"/>
                </mxCell>
                <mxCell id="170" value="" style="html=1;verticalLabelPosition=bottom;align=center;labelBackgroundColor=#ffffff;verticalAlign=top;strokeWidth=2;strokeColor=#0e8088;shadow=0;dashed=0;shape=mxgraph.ios7.icons.message;fillColor=#b0e3e6;" parent="1" vertex="1">
                    <mxGeometry x="640" y="400" width="190" height="50" as="geometry"/>
                </mxCell>
                <mxCell id="171" value="" style="html=1;verticalLabelPosition=bottom;align=center;labelBackgroundColor=#ffffff;verticalAlign=top;strokeWidth=2;strokeColor=#0e8088;shadow=0;dashed=0;shape=mxgraph.ios7.icons.message;fillColor=#b0e3e6;" parent="1" vertex="1">
                    <mxGeometry x="640" y="470" width="190" height="50" as="geometry"/>
                </mxCell>
                <mxCell id="172" value="" style="html=1;verticalLabelPosition=bottom;align=center;labelBackgroundColor=#ffffff;verticalAlign=top;strokeWidth=2;strokeColor=#0e8088;shadow=0;dashed=0;shape=mxgraph.ios7.icons.message;fillColor=#b0e3e6;flipH=1;" parent="1" vertex="1">
                    <mxGeometry x="607" y="540" width="190" height="50" as="geometry"/>
                </mxCell>
                <mxCell id="175" value="Text" style="text;html=1;align=center;verticalAlign=middle;whiteSpace=wrap;rounded=0;fontColor=#000000;" parent="1" vertex="1">
                    <mxGeometry x="715" y="345" width="40" height="20" as="geometry"/>
                </mxCell>
                <mxCell id="176" value="Text" style="text;html=1;align=center;verticalAlign=middle;whiteSpace=wrap;rounded=0;fontColor=#000000;" parent="1" vertex="1">
                    <mxGeometry x="720" y="410" width="40" height="20" as="geometry"/>
                </mxCell>
                <mxCell id="177" value="Text" style="text;html=1;align=center;verticalAlign=middle;whiteSpace=wrap;rounded=0;fontColor=#000000;" parent="1" vertex="1">
                    <mxGeometry x="710" y="480" width="40" height="20" as="geometry"/>
                </mxCell>
                <mxCell id="178" value="Text" style="text;html=1;align=center;verticalAlign=middle;whiteSpace=wrap;rounded=0;fontColor=#000000;" parent="1" vertex="1">
                    <mxGeometry x="680" y="552" width="40" height="20" as="geometry"/>
                </mxCell>
                <mxCell id="179" value="&lt;h1&gt;案2 ZOOM併用&lt;/h1&gt;&lt;p&gt;&lt;span&gt;･ 画面の領域的にきついあかも??&lt;/span&gt;&lt;/p&gt;&lt;p&gt;&lt;span&gt;･ トーナメント式?&lt;/span&gt;&lt;br&gt;&lt;/p&gt;&lt;p&gt;&lt;span&gt;･ もしくは、揃うまでの時間を図る??&lt;/span&gt;&lt;/p&gt;" style="text;html=1;strokeColor=none;fillColor=none;spacing=5;spacingTop=-20;whiteSpace=wrap;overflow=hidden;rounded=0;" parent="1" vertex="1">
                    <mxGeometry x="-750" y="770" width="830" height="120" as="geometry"/>
                </mxCell>
                <mxCell id="331" value="" style="group" parent="1" vertex="1" connectable="0">
                    <mxGeometry x="-745" y="930" width="260" height="350" as="geometry"/>
                </mxCell>
                <mxCell id="332" value="配信ch選択" style="strokeWidth=1;shadow=0;dashed=0;align=center;html=1;shape=mxgraph.mockup.containers.window;align=left;verticalAlign=top;spacingLeft=8;strokeColor2=#008cff;strokeColor3=#c4c4c4;fontColor=#666666;mainText=;fontSize=17;labelBackgroundColor=none;" parent="331" vertex="1">
                    <mxGeometry width="260" height="350" as="geometry"/>
                </mxCell>
                <mxCell id="333" value="1ch 配信" style="html=1;shadow=0;dashed=0;shape=mxgraph.bootstrap.rrect;rSize=5;strokeColor=#33A64C;strokeWidth=1;fillColor=none;fontColor=#33A64C;whiteSpace=wrap;align=center;verticalAlign=middle;spacingLeft=0;fontStyle=0;fontSize=16;spacing=5;" parent="331" vertex="1">
                    <mxGeometry x="65" y="80" width="130" height="40" as="geometry"/>
                </mxCell>
                <mxCell id="334" value="2ch 配信" style="html=1;shadow=0;dashed=0;shape=mxgraph.bootstrap.rrect;rSize=5;strokeColor=#DB2843;strokeWidth=1;fillColor=none;fontColor=#DB2843;whiteSpace=wrap;align=center;verticalAlign=middle;spacingLeft=0;fontStyle=0;fontSize=16;spacing=5;" parent="331" vertex="1">
                    <mxGeometry x="65" y="140" width="130" height="40" as="geometry"/>
                </mxCell>
                <mxCell id="335" value="3ch 配信" style="html=1;shadow=0;dashed=0;shape=mxgraph.bootstrap.rrect;rSize=5;strokeColor=#FFBC26;strokeWidth=1;fillColor=none;fontColor=#FFBC26;whiteSpace=wrap;align=center;verticalAlign=middle;spacingLeft=0;fontStyle=0;fontSize=16;spacing=5;" parent="331" vertex="1">
                    <mxGeometry x="65" y="200" width="130" height="40" as="geometry"/>
                </mxCell>
                <mxCell id="336" value="4ch 配信" style="html=1;shadow=0;dashed=0;shape=mxgraph.bootstrap.rrect;rSize=5;strokeColor=#1CA5B8;strokeWidth=1;fillColor=none;fontColor=#1CA5B8;whiteSpace=wrap;align=center;verticalAlign=middle;spacingLeft=0;fontStyle=0;fontSize=16;spacing=5;" parent="331" vertex="1">
                    <mxGeometry x="65" y="260" width="130" height="40" as="geometry"/>
                </mxCell>
                <mxCell id="337" value="" style="group" parent="1" vertex="1" connectable="0">
                    <mxGeometry x="-375" y="880" width="260" height="260" as="geometry"/>
                </mxCell>
                <mxCell id="338" value="" style="group" parent="337" vertex="1" connectable="0">
                    <mxGeometry width="260" height="260" as="geometry"/>
                </mxCell>
                <mxCell id="339" value="1ch 配信" style="strokeWidth=1;shadow=0;dashed=0;align=center;html=1;shape=mxgraph.mockup.containers.window;align=left;verticalAlign=top;spacingLeft=8;strokeColor2=#008cff;strokeColor3=#c4c4c4;fontColor=#666666;mainText=;fontSize=17;labelBackgroundColor=none;" parent="338" vertex="1">
                    <mxGeometry width="260" height="260" as="geometry"/>
                </mxCell>
                <mxCell id="340" value="" style="group" parent="337" vertex="1" connectable="0">
                    <mxGeometry x="70" y="80" width="114.29" height="120" as="geometry"/>
                </mxCell>
                <mxCell id="341" value="" style="verticalLabelPosition=bottom;shadow=0;dashed=0;align=center;html=1;verticalAlign=top;strokeWidth=1;shape=mxgraph.mockup.containers.userMale;strokeColor=#666666;strokeColor2=#008cff;" parent="340" vertex="1">
                    <mxGeometry width="38.096666666666664" height="40" as="geometry"/>
                </mxCell>
                <mxCell id="342" value="" style="verticalLabelPosition=bottom;shadow=0;dashed=0;align=center;html=1;verticalAlign=top;strokeWidth=1;shape=mxgraph.mockup.containers.userMale;strokeColor=#666666;strokeColor2=#008cff;" parent="340" vertex="1">
                    <mxGeometry x="38.096666666666664" width="38.096666666666664" height="40" as="geometry"/>
                </mxCell>
                <mxCell id="343" value="" style="verticalLabelPosition=bottom;shadow=0;dashed=0;align=center;html=1;verticalAlign=top;strokeWidth=1;shape=mxgraph.mockup.containers.userMale;strokeColor=#666666;strokeColor2=#008cff;" parent="340" vertex="1">
                    <mxGeometry x="76.19333333333333" width="38.096666666666664" height="40" as="geometry"/>
                </mxCell>
                <mxCell id="344" value="" style="verticalLabelPosition=bottom;shadow=0;dashed=0;align=center;html=1;verticalAlign=top;strokeWidth=1;shape=mxgraph.mockup.containers.userMale;strokeColor=#666666;strokeColor2=#008cff;" parent="340" vertex="1">
                    <mxGeometry y="40" width="38.096666666666664" height="40" as="geometry"/>
                </mxCell>
                <mxCell id="345" value="" style="verticalLabelPosition=bottom;shadow=0;dashed=0;align=center;html=1;verticalAlign=top;strokeWidth=1;shape=mxgraph.mockup.containers.userMale;strokeColor=#666666;strokeColor2=#008cff;" parent="340" vertex="1">
                    <mxGeometry x="38.096666666666664" y="40" width="38.096666666666664" height="40" as="geometry"/>
                </mxCell>
                <mxCell id="346" value="" style="verticalLabelPosition=bottom;shadow=0;dashed=0;align=center;html=1;verticalAlign=top;strokeWidth=1;shape=mxgraph.mockup.containers.userMale;strokeColor=#666666;strokeColor2=#008cff;" parent="340" vertex="1">
                    <mxGeometry x="76.19333333333333" y="40" width="38.096666666666664" height="40" as="geometry"/>
                </mxCell>
                <mxCell id="347" value="" style="verticalLabelPosition=bottom;shadow=0;dashed=0;align=center;html=1;verticalAlign=top;strokeWidth=1;shape=mxgraph.mockup.containers.userMale;strokeColor=#666666;strokeColor2=#008cff;" parent="340" vertex="1">
                    <mxGeometry x="76.19333333333333" y="80" width="38.096666666666664" height="40" as="geometry"/>
                </mxCell>
                <mxCell id="348" value="" style="verticalLabelPosition=bottom;shadow=0;dashed=0;align=center;html=1;verticalAlign=top;strokeWidth=1;shape=mxgraph.mockup.containers.userMale;strokeColor=#666666;strokeColor2=#008cff;direction=south;" parent="340" vertex="1">
                    <mxGeometry x="37.14" y="80" width="40" height="39.05" as="geometry"/>
                </mxCell>
                <mxCell id="349" value="" style="verticalLabelPosition=bottom;shadow=0;dashed=0;align=center;html=1;verticalAlign=top;strokeWidth=1;shape=mxgraph.mockup.containers.userMale;strokeColor=#666666;strokeColor2=#008cff;" parent="340" vertex="1">
                    <mxGeometry y="80" width="38.096666666666664" height="40" as="geometry"/>
                </mxCell>
                <mxCell id="350" value="" style="group" parent="1" vertex="1" connectable="0">
                    <mxGeometry x="-375" y="1175" width="260" height="260" as="geometry"/>
                </mxCell>
                <mxCell id="351" value="" style="group" parent="350" vertex="1" connectable="0">
                    <mxGeometry width="260" height="260" as="geometry"/>
                </mxCell>
                <mxCell id="352" value="2ch 配信" style="strokeWidth=1;shadow=0;dashed=0;align=center;html=1;shape=mxgraph.mockup.containers.window;align=left;verticalAlign=top;spacingLeft=8;strokeColor2=#008cff;strokeColor3=#c4c4c4;fontColor=#666666;mainText=;fontSize=17;labelBackgroundColor=none;" parent="351" vertex="1">
                    <mxGeometry width="260" height="260" as="geometry"/>
                </mxCell>
                <mxCell id="353" value="" style="group" parent="350" vertex="1" connectable="0">
                    <mxGeometry x="70" y="80" width="114.29" height="120" as="geometry"/>
                </mxCell>
                <mxCell id="354" value="" style="verticalLabelPosition=bottom;shadow=0;dashed=0;align=center;html=1;verticalAlign=top;strokeWidth=1;shape=mxgraph.mockup.containers.userMale;strokeColor=#666666;strokeColor2=#008cff;" parent="353" vertex="1">
                    <mxGeometry width="38.096666666666664" height="40" as="geometry"/>
                </mxCell>
                <mxCell id="355" value="" style="verticalLabelPosition=bottom;shadow=0;dashed=0;align=center;html=1;verticalAlign=top;strokeWidth=1;shape=mxgraph.mockup.containers.userMale;strokeColor=#666666;strokeColor2=#008cff;" parent="353" vertex="1">
                    <mxGeometry x="38.096666666666664" width="38.096666666666664" height="40" as="geometry"/>
                </mxCell>
                <mxCell id="356" value="" style="verticalLabelPosition=bottom;shadow=0;dashed=0;align=center;html=1;verticalAlign=top;strokeWidth=1;shape=mxgraph.mockup.containers.userMale;strokeColor=#666666;strokeColor2=#008cff;" parent="353" vertex="1">
                    <mxGeometry x="76.19333333333333" width="38.096666666666664" height="40" as="geometry"/>
                </mxCell>
                <mxCell id="357" value="" style="verticalLabelPosition=bottom;shadow=0;dashed=0;align=center;html=1;verticalAlign=top;strokeWidth=1;shape=mxgraph.mockup.containers.userMale;strokeColor=#666666;strokeColor2=#008cff;" parent="353" vertex="1">
                    <mxGeometry y="40" width="38.096666666666664" height="40" as="geometry"/>
                </mxCell>
                <mxCell id="358" value="" style="verticalLabelPosition=bottom;shadow=0;dashed=0;align=center;html=1;verticalAlign=top;strokeWidth=1;shape=mxgraph.mockup.containers.userMale;strokeColor=#666666;strokeColor2=#008cff;" parent="353" vertex="1">
                    <mxGeometry x="38.096666666666664" y="40" width="38.096666666666664" height="40" as="geometry"/>
                </mxCell>
                <mxCell id="359" value="" style="verticalLabelPosition=bottom;shadow=0;dashed=0;align=center;html=1;verticalAlign=top;strokeWidth=1;shape=mxgraph.mockup.containers.userMale;strokeColor=#666666;strokeColor2=#008cff;" parent="353" vertex="1">
                    <mxGeometry x="76.19333333333333" y="40" width="38.096666666666664" height="40" as="geometry"/>
                </mxCell>
                <mxCell id="360" value="" style="verticalLabelPosition=bottom;shadow=0;dashed=0;align=center;html=1;verticalAlign=top;strokeWidth=1;shape=mxgraph.mockup.containers.userMale;strokeColor=#666666;strokeColor2=#008cff;" parent="353" vertex="1">
                    <mxGeometry x="76.19333333333333" y="80" width="38.096666666666664" height="40" as="geometry"/>
                </mxCell>
                <mxCell id="361" value="" style="verticalLabelPosition=bottom;shadow=0;dashed=0;align=center;html=1;verticalAlign=top;strokeWidth=1;shape=mxgraph.mockup.containers.userMale;strokeColor=#666666;strokeColor2=#008cff;direction=south;" parent="353" vertex="1">
                    <mxGeometry x="37.144999999999996" y="80.95166666666667" width="40" height="38.096666666666664" as="geometry"/>
                </mxCell>
                <mxCell id="362" value="" style="verticalLabelPosition=bottom;shadow=0;dashed=0;align=center;html=1;verticalAlign=top;strokeWidth=1;shape=mxgraph.mockup.containers.userMale;strokeColor=#666666;strokeColor2=#008cff;" parent="353" vertex="1">
                    <mxGeometry y="80" width="38.096666666666664" height="40" as="geometry"/>
                </mxCell>
                <mxCell id="363" value="" style="edgeStyle=none;html=1;" parent="1" source="332" target="339" edge="1">
                    <mxGeometry relative="1" as="geometry"/>
                </mxCell>
                <mxCell id="364" value="" style="edgeStyle=none;html=1;" parent="1" source="332" target="339" edge="1">
                    <mxGeometry relative="1" as="geometry"/>
                </mxCell>
                <mxCell id="365" style="edgeStyle=none;html=1;" parent="1" source="332" target="352" edge="1">
                    <mxGeometry relative="1" as="geometry">
                        <mxPoint x="-465" y="1110" as="targetPoint"/>
                    </mxGeometry>
                </mxCell>
                <mxCell id="366" style="edgeStyle=none;html=1;" parent="1" source="367" target="383" edge="1">
                    <mxGeometry relative="1" as="geometry">
                        <mxPoint x="331.0199999999995" y="1173.0300000000002" as="targetPoint"/>
                    </mxGeometry>
                </mxCell>
                <mxCell id="367" value="" style="points=[[0,0,0],[0.25,0,0],[0.5,0,0],[0.75,0,0],[1,0,0],[0,1,0],[0.25,1,0],[0.5,1,0],[0.75,1,0],[1,1,0],[0,0.25,0],[0,0.5,0],[0,0.75,0],[1,0.25,0],[1,0.5,0],[1,0.75,0]];outlineConnect=0;fontColor=#232F3E;gradientColor=#FF5252;gradientDirection=north;fillColor=#C7131F;strokeColor=#ffffff;dashed=0;verticalLabelPosition=bottom;verticalAlign=top;align=center;html=1;fontSize=12;fontStyle=0;aspect=fixed;shape=mxgraph.aws4.resourceIcon;resIcon=mxgraph.aws4.chime;" parent="1" vertex="1">
                    <mxGeometry x="-55" y="980" width="78" height="78" as="geometry"/>
                </mxCell>
                <mxCell id="368" value="" style="edgeStyle=none;html=1;" parent="1" source="339" target="367" edge="1">
                    <mxGeometry relative="1" as="geometry"/>
                </mxCell>
                <mxCell id="369" style="edgeStyle=none;html=1;" parent="1" source="370" target="396" edge="1">
                    <mxGeometry relative="1" as="geometry">
                        <mxPoint x="214.99999999999955" y="1471.0917721518986" as="targetPoint"/>
                    </mxGeometry>
                </mxCell>
                <mxCell id="370" value="" style="points=[[0,0,0],[0.25,0,0],[0.5,0,0],[0.75,0,0],[1,0,0],[0,1,0],[0.25,1,0],[0.5,1,0],[0.75,1,0],[1,1,0],[0,0.25,0],[0,0.5,0],[0,0.75,0],[1,0.25,0],[1,0.5,0],[1,0.75,0]];outlineConnect=0;fontColor=#232F3E;gradientColor=#FF5252;gradientDirection=north;fillColor=#C7131F;strokeColor=#ffffff;dashed=0;verticalLabelPosition=bottom;verticalAlign=top;align=center;html=1;fontSize=12;fontStyle=0;aspect=fixed;shape=mxgraph.aws4.resourceIcon;resIcon=mxgraph.aws4.chime;" parent="1" vertex="1">
                    <mxGeometry x="-55" y="1272" width="78" height="78" as="geometry"/>
                </mxCell>
                <mxCell id="371" value="" style="edgeStyle=none;html=1;" parent="1" source="352" target="370" edge="1">
                    <mxGeometry relative="1" as="geometry"/>
                </mxCell>
                <mxCell id="396" value="" style="strokeWidth=1;shadow=0;dashed=0;align=center;html=1;shape=mxgraph.mockup.containers.browserWindow;rSize=0;strokeColor=#666666;strokeColor2=#008cff;strokeColor3=#c4c4c4;mainText=,;recursiveResize=0;fontColor=#000000;" parent="1" vertex="1">
                    <mxGeometry x="510" y="950" width="300" height="410" as="geometry"/>
                </mxCell>
                <mxCell id="397" value="Tab2" style="strokeWidth=1;shadow=0;dashed=0;align=center;html=1;shape=mxgraph.mockup.containers.anchor;fontSize=17;fontColor=#666666;align=left;" parent="396" vertex="1">
                    <mxGeometry x="60" y="12" width="110" height="26" as="geometry"/>
                </mxCell>
                <mxCell id="398" value="https://www.draw.io" style="strokeWidth=1;shadow=0;dashed=0;align=center;html=1;shape=mxgraph.mockup.containers.anchor;rSize=0;fontSize=17;fontColor=#666666;align=left;" parent="396" vertex="1">
                    <mxGeometry x="130" y="60" width="250" height="26" as="geometry"/>
                </mxCell>
                <mxCell id="399" value="" style="group" parent="396" vertex="1" connectable="0">
                    <mxGeometry y="110" width="300" height="300" as="geometry"/>
                </mxCell>
                <mxCell id="400" value="" style="verticalLabelPosition=bottom;shadow=0;dashed=0;align=center;html=1;verticalAlign=top;strokeWidth=1;shape=mxgraph.mockup.containers.userMale;strokeColor=#666666;strokeColor2=#008cff;" parent="399" vertex="1">
                    <mxGeometry width="99.99999999999999" height="100" as="geometry"/>
                </mxCell>
                <mxCell id="401" value="" style="verticalLabelPosition=bottom;shadow=0;dashed=0;align=center;html=1;verticalAlign=top;strokeWidth=1;shape=mxgraph.mockup.containers.userMale;strokeColor=#666666;strokeColor2=#008cff;" parent="399" vertex="1">
                    <mxGeometry x="99.99999999999999" width="99.99999999999999" height="100" as="geometry"/>
                </mxCell>
                <mxCell id="402" value="" style="verticalLabelPosition=bottom;shadow=0;dashed=0;align=center;html=1;verticalAlign=top;strokeWidth=1;shape=mxgraph.mockup.containers.userMale;strokeColor=#666666;strokeColor2=#008cff;" parent="399" vertex="1">
                    <mxGeometry x="199.99999999999997" width="99.99999999999999" height="100" as="geometry"/>
                </mxCell>
                <mxCell id="403" value="" style="verticalLabelPosition=bottom;shadow=0;dashed=0;align=center;html=1;verticalAlign=top;strokeWidth=1;shape=mxgraph.mockup.containers.userMale;strokeColor=#666666;strokeColor2=#008cff;" parent="399" vertex="1">
                    <mxGeometry y="100" width="99.99999999999999" height="100" as="geometry"/>
                </mxCell>
                <mxCell id="404" value="" style="verticalLabelPosition=bottom;shadow=0;dashed=0;align=center;html=1;verticalAlign=top;strokeWidth=1;shape=mxgraph.mockup.containers.userMale;strokeColor=#666666;strokeColor2=#008cff;" parent="399" vertex="1">
                    <mxGeometry x="99.99999999999999" y="100" width="99.99999999999999" height="100" as="geometry"/>
                </mxCell>
                <mxCell id="405" value="" style="verticalLabelPosition=bottom;shadow=0;dashed=0;align=center;html=1;verticalAlign=top;strokeWidth=1;shape=mxgraph.mockup.containers.userMale;strokeColor=#666666;strokeColor2=#008cff;" parent="399" vertex="1">
                    <mxGeometry x="199.99999999999997" y="100" width="99.99999999999999" height="100" as="geometry"/>
                </mxCell>
                <mxCell id="406" value="" style="verticalLabelPosition=bottom;shadow=0;dashed=0;align=center;html=1;verticalAlign=top;strokeWidth=1;shape=mxgraph.mockup.containers.userMale;strokeColor=#666666;strokeColor2=#008cff;" parent="399" vertex="1">
                    <mxGeometry x="199.99999999999997" y="200" width="99.99999999999999" height="100" as="geometry"/>
                </mxCell>
                <mxCell id="407" value="" style="verticalLabelPosition=bottom;shadow=0;dashed=0;align=center;html=1;verticalAlign=top;strokeWidth=1;shape=mxgraph.mockup.containers.userMale;strokeColor=#666666;strokeColor2=#008cff;direction=south;" parent="399" vertex="1">
                    <mxGeometry x="97.48884416834368" y="200" width="104.9960626476507" height="97.62499999999999" as="geometry"/>
                </mxCell>
                <mxCell id="408" value="" style="verticalLabelPosition=bottom;shadow=0;dashed=0;align=center;html=1;verticalAlign=top;strokeWidth=1;shape=mxgraph.mockup.containers.userMale;strokeColor=#666666;strokeColor2=#008cff;" parent="399" vertex="1">
                    <mxGeometry y="200" width="99.99999999999999" height="100" as="geometry"/>
                </mxCell>
                <mxCell id="409" value="" style="strokeWidth=1;shadow=0;dashed=0;align=center;html=1;shape=mxgraph.mockup.containers.marginRect2;rectMarginTop=32;strokeColor=#666666;gradientColor=none;fontColor=#000000;" parent="1" vertex="1">
                    <mxGeometry x="850" y="930" width="230" height="900" as="geometry"/>
                </mxCell>
                <mxCell id="410" value="Tab 1" style="strokeColor=inherit;fillColor=inherit;gradientColor=inherit;strokeWidth=1;shadow=0;dashed=0;align=center;html=1;shape=mxgraph.mockup.containers.rrect;rSize=0;fontSize=17;fontColor=#666666;gradientColor=none;" parent="409" vertex="1">
                    <mxGeometry width="60" height="25" relative="1" as="geometry">
                        <mxPoint x="10" as="offset"/>
                    </mxGeometry>
                </mxCell>
                <mxCell id="411" value="Tab 2" style="strokeWidth=1;shadow=0;dashed=0;align=center;html=1;shape=mxgraph.mockup.containers.rrect;rSize=0;fontSize=17;fontColor=#ffffff;strokeColor=#008cff;fillColor=#008cff;" parent="409" vertex="1">
                    <mxGeometry width="60" height="25" relative="1" as="geometry">
                        <mxPoint x="75" as="offset"/>
                    </mxGeometry>
                </mxCell>
                <mxCell id="412" value="Tab 3" style="strokeColor=inherit;fillColor=inherit;gradientColor=inherit;strokeWidth=1;shadow=0;dashed=0;align=center;html=1;shape=mxgraph.mockup.containers.rrect;rSize=0;fontSize=17;fontColor=#666666;gradientColor=none;" parent="409" vertex="1">
                    <mxGeometry width="60" height="25" relative="1" as="geometry">
                        <mxPoint x="140" as="offset"/>
                    </mxGeometry>
                </mxCell>
                <mxCell id="413" value="" style="strokeWidth=1;shadow=0;dashed=0;align=center;html=1;shape=mxgraph.mockup.containers.topButton;rSize=5;strokeColor=#008cff;fillColor=#008cff;gradientColor=none;resizeWidth=1;movable=0;deletable=1;" parent="409" vertex="1">
                    <mxGeometry width="229.99999999999997" height="7" relative="1" as="geometry">
                        <mxPoint y="25" as="offset"/>
                    </mxGeometry>
                </mxCell>
                <mxCell id="414" value="Password" style="html=1;shadow=0;dashed=0;shape=mxgraph.bootstrap.rrect;rSize=5;strokeColor=#999999;fillColor=#ffffff;fontColor=#777777;whiteSpace=wrap;align=left;verticalAlign=middle;fontStyle=0;fontSize=14;spacing=15;" parent="409" vertex="1">
                    <mxGeometry x="10" y="820" width="130" height="41.7" as="geometry"/>
                </mxCell>
                <mxCell id="415" value="投稿" style="html=1;shadow=0;dashed=0;shape=mxgraph.bootstrap.rrect;rSize=5;strokeColor=none;fillColor=#0085FC;fontColor=#ffffff;whiteSpace=wrap;align=center;verticalAlign=middle;fontStyle=0;fontSize=14;spacing=14;" parent="409" vertex="1">
                    <mxGeometry x="150" y="820" width="70" height="41.7" as="geometry"/>
                </mxCell>
                <mxCell id="417" value="" style="html=1;verticalLabelPosition=bottom;align=center;labelBackgroundColor=#ffffff;verticalAlign=top;strokeWidth=2;strokeColor=#0e8088;shadow=0;dashed=0;shape=mxgraph.ios7.icons.message;fillColor=#b0e3e6;" parent="409" vertex="1">
                    <mxGeometry x="20" y="60" width="190" height="50" as="geometry"/>
                </mxCell>
                <mxCell id="466" value="" style="html=1;verticalLabelPosition=bottom;align=center;labelBackgroundColor=#ffffff;verticalAlign=top;strokeWidth=2;strokeColor=#0e8088;shadow=0;dashed=0;shape=mxgraph.ios7.icons.message;fillColor=#b0e3e6;" parent="409" vertex="1">
                    <mxGeometry x="20" y="210" width="190" height="50" as="geometry"/>
                </mxCell>
                <mxCell id="467" value="" style="html=1;verticalLabelPosition=bottom;align=center;labelBackgroundColor=#ffffff;verticalAlign=top;strokeWidth=2;strokeColor=#0e8088;shadow=0;dashed=0;shape=mxgraph.ios7.icons.message;fillColor=#b0e3e6;" parent="409" vertex="1">
                    <mxGeometry x="20" y="280" width="190" height="50" as="geometry"/>
                </mxCell>
                <mxCell id="423" value="" style="edgeStyle=none;html=1;fontColor=#FFFFFF;" parent="1" source="422" target="70" edge="1">
                    <mxGeometry relative="1" as="geometry"/>
                </mxCell>
                <mxCell id="422" value="競技者" style="aspect=fixed;html=1;points=[];align=center;image;fontSize=12;image=img/lib/azure2/management_governance/User_Privacy.svg;fontColor=#FFFFFF;" parent="1" vertex="1">
                    <mxGeometry x="-900" y="351" width="64" height="68" as="geometry"/>
                </mxCell>
                <mxCell id="428" style="edgeStyle=none;html=1;fontColor=#FFFFFF;" parent="1" source="425" target="2" edge="1">
                    <mxGeometry relative="1" as="geometry"/>
                </mxCell>
                <mxCell id="425" value="観戦者" style="outlineConnect=0;dashed=0;verticalLabelPosition=bottom;verticalAlign=top;align=center;html=1;shape=mxgraph.aws3.user;fillColor=#D2D3D3;gradientColor=none;fontColor=#FFFFFF;" parent="1" vertex="1">
                    <mxGeometry x="1190" y="257" width="45" height="63" as="geometry"/>
                </mxCell>
                <mxCell id="429" style="edgeStyle=none;html=1;fontColor=#FFFFFF;" parent="1" source="426" target="2" edge="1">
                    <mxGeometry relative="1" as="geometry"/>
                </mxCell>
                <mxCell id="426" value="観戦者" style="outlineConnect=0;dashed=0;verticalLabelPosition=bottom;verticalAlign=top;align=center;html=1;shape=mxgraph.aws3.user;fillColor=#D2D3D3;gradientColor=none;fontColor=#FFFFFF;" parent="1" vertex="1">
                    <mxGeometry x="1190" y="375" width="45" height="63" as="geometry"/>
                </mxCell>
                <mxCell id="430" style="edgeStyle=none;html=1;fontColor=#FFFFFF;" parent="1" source="427" target="2" edge="1">
                    <mxGeometry relative="1" as="geometry"/>
                </mxCell>
                <mxCell id="427" value="観戦者" style="outlineConnect=0;dashed=0;verticalLabelPosition=bottom;verticalAlign=top;align=center;html=1;shape=mxgraph.aws3.user;fillColor=#D2D3D3;gradientColor=none;fontColor=#FFFFFF;" parent="1" vertex="1">
                    <mxGeometry x="1190" y="497" width="45" height="63" as="geometry"/>
                </mxCell>
                <mxCell id="432" style="edgeStyle=none;html=1;fontColor=#FFFFFF;" parent="1" source="431" target="332" edge="1">
                    <mxGeometry relative="1" as="geometry"/>
                </mxCell>
                <mxCell id="431" value="競技者" style="aspect=fixed;html=1;points=[];align=center;image;fontSize=12;image=img/lib/azure2/management_governance/User_Privacy.svg;fontColor=#FFFFFF;" parent="1" vertex="1">
                    <mxGeometry x="-900" y="1071" width="64" height="68" as="geometry"/>
                </mxCell>
                <mxCell id="436" style="edgeStyle=none;html=1;fontColor=#FFFFFF;" parent="1" source="433" target="409" edge="1">
                    <mxGeometry relative="1" as="geometry"/>
                </mxCell>
                <mxCell id="433" value="観戦者" style="outlineConnect=0;dashed=0;verticalLabelPosition=bottom;verticalAlign=top;align=center;html=1;shape=mxgraph.aws3.user;fillColor=#D2D3D3;gradientColor=none;fontColor=#FFFFFF;" parent="1" vertex="1">
                    <mxGeometry x="1260" y="940" width="45" height="63" as="geometry"/>
                </mxCell>
                <mxCell id="437" style="edgeStyle=none;html=1;fontColor=#FFFFFF;" parent="1" source="434" target="409" edge="1">
                    <mxGeometry relative="1" as="geometry"/>
                </mxCell>
                <mxCell id="434" value="観戦者" style="outlineConnect=0;dashed=0;verticalLabelPosition=bottom;verticalAlign=top;align=center;html=1;shape=mxgraph.aws3.user;fillColor=#D2D3D3;gradientColor=none;fontColor=#FFFFFF;" parent="1" vertex="1">
                    <mxGeometry x="1260" y="1058" width="45" height="63" as="geometry"/>
                </mxCell>
                <mxCell id="438" style="edgeStyle=none;html=1;entryX=1.02;entryY=0.641;entryDx=0;entryDy=0;entryPerimeter=0;fontColor=#FFFFFF;" parent="1" source="435" target="409" edge="1">
                    <mxGeometry relative="1" as="geometry"/>
                </mxCell>
                <mxCell id="435" value="観戦者" style="outlineConnect=0;dashed=0;verticalLabelPosition=bottom;verticalAlign=top;align=center;html=1;shape=mxgraph.aws3.user;fillColor=#D2D3D3;gradientColor=none;fontColor=#FFFFFF;" parent="1" vertex="1">
                    <mxGeometry x="1260" y="1180" width="45" height="63" as="geometry"/>
                </mxCell>
                <mxCell id="439" value="" style="strokeWidth=1;shadow=0;dashed=0;align=center;html=1;shape=mxgraph.mockup.containers.browserWindow;rSize=0;strokeColor=#666666;strokeColor2=#008cff;strokeColor3=#c4c4c4;mainText=,;recursiveResize=0;fontColor=#000000;" parent="1" vertex="1">
                    <mxGeometry x="190" y="1380" width="300" height="410" as="geometry"/>
                </mxCell>
                <mxCell id="440" value="Tab3" style="strokeWidth=1;shadow=0;dashed=0;align=center;html=1;shape=mxgraph.mockup.containers.anchor;fontSize=17;fontColor=#666666;align=left;" parent="439" vertex="1">
                    <mxGeometry x="60" y="12" width="110" height="26" as="geometry"/>
                </mxCell>
                <mxCell id="441" value="https://www.draw.io" style="strokeWidth=1;shadow=0;dashed=0;align=center;html=1;shape=mxgraph.mockup.containers.anchor;rSize=0;fontSize=17;fontColor=#666666;align=left;" parent="439" vertex="1">
                    <mxGeometry x="130" y="60" width="250" height="26" as="geometry"/>
                </mxCell>
                <mxCell id="442" value="" style="group" parent="439" vertex="1" connectable="0">
                    <mxGeometry y="110" width="300" height="300" as="geometry"/>
                </mxCell>
                <mxCell id="443" value="" style="verticalLabelPosition=bottom;shadow=0;dashed=0;align=center;html=1;verticalAlign=top;strokeWidth=1;shape=mxgraph.mockup.containers.userMale;strokeColor=#666666;strokeColor2=#008cff;" parent="442" vertex="1">
                    <mxGeometry width="99.99999999999999" height="100" as="geometry"/>
                </mxCell>
                <mxCell id="444" value="" style="verticalLabelPosition=bottom;shadow=0;dashed=0;align=center;html=1;verticalAlign=top;strokeWidth=1;shape=mxgraph.mockup.containers.userMale;strokeColor=#666666;strokeColor2=#008cff;" parent="442" vertex="1">
                    <mxGeometry x="99.99999999999999" width="99.99999999999999" height="100" as="geometry"/>
                </mxCell>
                <mxCell id="445" value="" style="verticalLabelPosition=bottom;shadow=0;dashed=0;align=center;html=1;verticalAlign=top;strokeWidth=1;shape=mxgraph.mockup.containers.userMale;strokeColor=#666666;strokeColor2=#008cff;" parent="442" vertex="1">
                    <mxGeometry x="199.99999999999997" width="99.99999999999999" height="100" as="geometry"/>
                </mxCell>
                <mxCell id="446" value="" style="verticalLabelPosition=bottom;shadow=0;dashed=0;align=center;html=1;verticalAlign=top;strokeWidth=1;shape=mxgraph.mockup.containers.userMale;strokeColor=#666666;strokeColor2=#008cff;" parent="442" vertex="1">
                    <mxGeometry y="100" width="99.99999999999999" height="100" as="geometry"/>
                </mxCell>
                <mxCell id="447" value="" style="verticalLabelPosition=bottom;shadow=0;dashed=0;align=center;html=1;verticalAlign=top;strokeWidth=1;shape=mxgraph.mockup.containers.userMale;strokeColor=#666666;strokeColor2=#008cff;" parent="442" vertex="1">
                    <mxGeometry x="99.99999999999999" y="100" width="99.99999999999999" height="100" as="geometry"/>
                </mxCell>
                <mxCell id="448" value="" style="verticalLabelPosition=bottom;shadow=0;dashed=0;align=center;html=1;verticalAlign=top;strokeWidth=1;shape=mxgraph.mockup.containers.userMale;strokeColor=#666666;strokeColor2=#008cff;" parent="442" vertex="1">
                    <mxGeometry x="199.99999999999997" y="100" width="99.99999999999999" height="100" as="geometry"/>
                </mxCell>
                <mxCell id="449" value="" style="verticalLabelPosition=bottom;shadow=0;dashed=0;align=center;html=1;verticalAlign=top;strokeWidth=1;shape=mxgraph.mockup.containers.userMale;strokeColor=#666666;strokeColor2=#008cff;" parent="442" vertex="1">
                    <mxGeometry x="199.99999999999997" y="200" width="99.99999999999999" height="100" as="geometry"/>
                </mxCell>
                <mxCell id="450" value="" style="verticalLabelPosition=bottom;shadow=0;dashed=0;align=center;html=1;verticalAlign=top;strokeWidth=1;shape=mxgraph.mockup.containers.userMale;strokeColor=#666666;strokeColor2=#008cff;direction=south;" parent="442" vertex="1">
                    <mxGeometry x="97.48884416834368" y="200" width="104.9960626476507" height="97.62499999999999" as="geometry"/>
                </mxCell>
                <mxCell id="451" value="" style="verticalLabelPosition=bottom;shadow=0;dashed=0;align=center;html=1;verticalAlign=top;strokeWidth=1;shape=mxgraph.mockup.containers.userMale;strokeColor=#666666;strokeColor2=#008cff;" parent="442" vertex="1">
                    <mxGeometry y="200" width="99.99999999999999" height="100" as="geometry"/>
                </mxCell>
                <mxCell id="452" value="" style="strokeWidth=1;shadow=0;dashed=0;align=center;html=1;shape=mxgraph.mockup.containers.browserWindow;rSize=0;strokeColor=#666666;strokeColor2=#008cff;strokeColor3=#c4c4c4;mainText=,;recursiveResize=0;fontColor=#000000;" parent="1" vertex="1">
                    <mxGeometry x="510" y="1380" width="300" height="410" as="geometry"/>
                </mxCell>
                <mxCell id="453" value="Tab4" style="strokeWidth=1;shadow=0;dashed=0;align=center;html=1;shape=mxgraph.mockup.containers.anchor;fontSize=17;fontColor=#666666;align=left;" parent="452" vertex="1">
                    <mxGeometry x="60" y="12" width="110" height="26" as="geometry"/>
                </mxCell>
                <mxCell id="454" value="https://www.draw.io" style="strokeWidth=1;shadow=0;dashed=0;align=center;html=1;shape=mxgraph.mockup.containers.anchor;rSize=0;fontSize=17;fontColor=#666666;align=left;" parent="452" vertex="1">
                    <mxGeometry x="130" y="60" width="250" height="26" as="geometry"/>
                </mxCell>
                <mxCell id="455" value="" style="group" parent="452" vertex="1" connectable="0">
                    <mxGeometry y="110" width="300" height="300" as="geometry"/>
                </mxCell>
                <mxCell id="456" value="" style="verticalLabelPosition=bottom;shadow=0;dashed=0;align=center;html=1;verticalAlign=top;strokeWidth=1;shape=mxgraph.mockup.containers.userMale;strokeColor=#666666;strokeColor2=#008cff;" parent="455" vertex="1">
                    <mxGeometry width="99.99999999999999" height="100" as="geometry"/>
                </mxCell>
                <mxCell id="457" value="" style="verticalLabelPosition=bottom;shadow=0;dashed=0;align=center;html=1;verticalAlign=top;strokeWidth=1;shape=mxgraph.mockup.containers.userMale;strokeColor=#666666;strokeColor2=#008cff;" parent="455" vertex="1">
                    <mxGeometry x="99.99999999999999" width="99.99999999999999" height="100" as="geometry"/>
                </mxCell>
                <mxCell id="458" value="" style="verticalLabelPosition=bottom;shadow=0;dashed=0;align=center;html=1;verticalAlign=top;strokeWidth=1;shape=mxgraph.mockup.containers.userMale;strokeColor=#666666;strokeColor2=#008cff;" parent="455" vertex="1">
                    <mxGeometry x="199.99999999999997" width="99.99999999999999" height="100" as="geometry"/>
                </mxCell>
                <mxCell id="459" value="" style="verticalLabelPosition=bottom;shadow=0;dashed=0;align=center;html=1;verticalAlign=top;strokeWidth=1;shape=mxgraph.mockup.containers.userMale;strokeColor=#666666;strokeColor2=#008cff;" parent="455" vertex="1">
                    <mxGeometry y="100" width="99.99999999999999" height="100" as="geometry"/>
                </mxCell>
                <mxCell id="460" value="" style="verticalLabelPosition=bottom;shadow=0;dashed=0;align=center;html=1;verticalAlign=top;strokeWidth=1;shape=mxgraph.mockup.containers.userMale;strokeColor=#666666;strokeColor2=#008cff;" parent="455" vertex="1">
                    <mxGeometry x="99.99999999999999" y="100" width="99.99999999999999" height="100" as="geometry"/>
                </mxCell>
                <mxCell id="461" value="" style="verticalLabelPosition=bottom;shadow=0;dashed=0;align=center;html=1;verticalAlign=top;strokeWidth=1;shape=mxgraph.mockup.containers.userMale;strokeColor=#666666;strokeColor2=#008cff;" parent="455" vertex="1">
                    <mxGeometry x="199.99999999999997" y="100" width="99.99999999999999" height="100" as="geometry"/>
                </mxCell>
                <mxCell id="462" value="" style="verticalLabelPosition=bottom;shadow=0;dashed=0;align=center;html=1;verticalAlign=top;strokeWidth=1;shape=mxgraph.mockup.containers.userMale;strokeColor=#666666;strokeColor2=#008cff;" parent="455" vertex="1">
                    <mxGeometry x="199.99999999999997" y="200" width="99.99999999999999" height="100" as="geometry"/>
                </mxCell>
                <mxCell id="463" value="" style="verticalLabelPosition=bottom;shadow=0;dashed=0;align=center;html=1;verticalAlign=top;strokeWidth=1;shape=mxgraph.mockup.containers.userMale;strokeColor=#666666;strokeColor2=#008cff;direction=south;" parent="455" vertex="1">
                    <mxGeometry x="97.48884416834368" y="200" width="104.9960626476507" height="97.62499999999999" as="geometry"/>
                </mxCell>
                <mxCell id="464" value="" style="verticalLabelPosition=bottom;shadow=0;dashed=0;align=center;html=1;verticalAlign=top;strokeWidth=1;shape=mxgraph.mockup.containers.userMale;strokeColor=#666666;strokeColor2=#008cff;" parent="455" vertex="1">
                    <mxGeometry y="200" width="99.99999999999999" height="100" as="geometry"/>
                </mxCell>
                <mxCell id="465" value="" style="html=1;verticalLabelPosition=bottom;align=center;labelBackgroundColor=#ffffff;verticalAlign=top;strokeWidth=2;strokeColor=#0e8088;shadow=0;dashed=0;shape=mxgraph.ios7.icons.message;fillColor=#b0e3e6;" parent="1" vertex="1">
                    <mxGeometry x="870" y="1071" width="190" height="50" as="geometry"/>
                </mxCell>
                <mxCell id="483" value="&lt;h1&gt;案3 ivs併用&lt;/h1&gt;&lt;p&gt;･ リアルタイム投票とかできる&lt;/p&gt;&lt;p&gt;･ いけるのか??&lt;/p&gt;&lt;p&gt;･ chatをどうする??&lt;/p&gt;" style="text;html=1;strokeColor=none;fillColor=none;spacing=5;spacingTop=-20;whiteSpace=wrap;overflow=hidden;rounded=0;" vertex="1" parent="1">
                    <mxGeometry x="-750" y="1920" width="830" height="120" as="geometry"/>
                </mxCell>
                <mxCell id="484" value="" style="group" vertex="1" connectable="0" parent="1">
                    <mxGeometry x="-745" y="2080" width="260" height="350" as="geometry"/>
                </mxCell>
                <mxCell id="485" value="配信ch選択" style="strokeWidth=1;shadow=0;dashed=0;align=center;html=1;shape=mxgraph.mockup.containers.window;align=left;verticalAlign=top;spacingLeft=8;strokeColor2=#008cff;strokeColor3=#c4c4c4;fontColor=#666666;mainText=;fontSize=17;labelBackgroundColor=none;" vertex="1" parent="484">
                    <mxGeometry width="260" height="350" as="geometry"/>
                </mxCell>
                <mxCell id="486" value="1ch 配信" style="html=1;shadow=0;dashed=0;shape=mxgraph.bootstrap.rrect;rSize=5;strokeColor=#33A64C;strokeWidth=1;fillColor=none;fontColor=#33A64C;whiteSpace=wrap;align=center;verticalAlign=middle;spacingLeft=0;fontStyle=0;fontSize=16;spacing=5;" vertex="1" parent="484">
                    <mxGeometry x="65" y="80" width="130" height="40" as="geometry"/>
                </mxCell>
                <mxCell id="487" value="2ch 配信" style="html=1;shadow=0;dashed=0;shape=mxgraph.bootstrap.rrect;rSize=5;strokeColor=#DB2843;strokeWidth=1;fillColor=none;fontColor=#DB2843;whiteSpace=wrap;align=center;verticalAlign=middle;spacingLeft=0;fontStyle=0;fontSize=16;spacing=5;" vertex="1" parent="484">
                    <mxGeometry x="65" y="140" width="130" height="40" as="geometry"/>
                </mxCell>
                <mxCell id="488" value="3ch 配信" style="html=1;shadow=0;dashed=0;shape=mxgraph.bootstrap.rrect;rSize=5;strokeColor=#FFBC26;strokeWidth=1;fillColor=none;fontColor=#FFBC26;whiteSpace=wrap;align=center;verticalAlign=middle;spacingLeft=0;fontStyle=0;fontSize=16;spacing=5;" vertex="1" parent="484">
                    <mxGeometry x="65" y="200" width="130" height="40" as="geometry"/>
                </mxCell>
                <mxCell id="489" value="4ch 配信" style="html=1;shadow=0;dashed=0;shape=mxgraph.bootstrap.rrect;rSize=5;strokeColor=#1CA5B8;strokeWidth=1;fillColor=none;fontColor=#1CA5B8;whiteSpace=wrap;align=center;verticalAlign=middle;spacingLeft=0;fontStyle=0;fontSize=16;spacing=5;" vertex="1" parent="484">
                    <mxGeometry x="65" y="260" width="130" height="40" as="geometry"/>
                </mxCell>
                <mxCell id="490" value="" style="group" vertex="1" connectable="0" parent="1">
                    <mxGeometry x="-375" y="2030" width="260" height="260" as="geometry"/>
                </mxCell>
                <mxCell id="491" value="" style="group" vertex="1" connectable="0" parent="490">
                    <mxGeometry width="260" height="260" as="geometry"/>
                </mxCell>
                <mxCell id="492" value="1ch 配信" style="strokeWidth=1;shadow=0;dashed=0;align=center;html=1;shape=mxgraph.mockup.containers.window;align=left;verticalAlign=top;spacingLeft=8;strokeColor2=#008cff;strokeColor3=#c4c4c4;fontColor=#666666;mainText=;fontSize=17;labelBackgroundColor=none;" vertex="1" parent="491">
                    <mxGeometry width="260" height="260" as="geometry"/>
                </mxCell>
                <mxCell id="493" value="" style="group" vertex="1" connectable="0" parent="490">
                    <mxGeometry x="70" y="80" width="114.29" height="120" as="geometry"/>
                </mxCell>
                <mxCell id="494" value="" style="verticalLabelPosition=bottom;shadow=0;dashed=0;align=center;html=1;verticalAlign=top;strokeWidth=1;shape=mxgraph.mockup.containers.userMale;strokeColor=#666666;strokeColor2=#008cff;" vertex="1" parent="493">
                    <mxGeometry width="38.096666666666664" height="40" as="geometry"/>
                </mxCell>
                <mxCell id="495" value="" style="verticalLabelPosition=bottom;shadow=0;dashed=0;align=center;html=1;verticalAlign=top;strokeWidth=1;shape=mxgraph.mockup.containers.userMale;strokeColor=#666666;strokeColor2=#008cff;" vertex="1" parent="493">
                    <mxGeometry x="38.096666666666664" width="38.096666666666664" height="40" as="geometry"/>
                </mxCell>
                <mxCell id="496" value="" style="verticalLabelPosition=bottom;shadow=0;dashed=0;align=center;html=1;verticalAlign=top;strokeWidth=1;shape=mxgraph.mockup.containers.userMale;strokeColor=#666666;strokeColor2=#008cff;" vertex="1" parent="493">
                    <mxGeometry x="76.19333333333333" width="38.096666666666664" height="40" as="geometry"/>
                </mxCell>
                <mxCell id="497" value="" style="verticalLabelPosition=bottom;shadow=0;dashed=0;align=center;html=1;verticalAlign=top;strokeWidth=1;shape=mxgraph.mockup.containers.userMale;strokeColor=#666666;strokeColor2=#008cff;" vertex="1" parent="493">
                    <mxGeometry y="40" width="38.096666666666664" height="40" as="geometry"/>
                </mxCell>
                <mxCell id="498" value="" style="verticalLabelPosition=bottom;shadow=0;dashed=0;align=center;html=1;verticalAlign=top;strokeWidth=1;shape=mxgraph.mockup.containers.userMale;strokeColor=#666666;strokeColor2=#008cff;" vertex="1" parent="493">
                    <mxGeometry x="38.096666666666664" y="40" width="38.096666666666664" height="40" as="geometry"/>
                </mxCell>
                <mxCell id="499" value="" style="verticalLabelPosition=bottom;shadow=0;dashed=0;align=center;html=1;verticalAlign=top;strokeWidth=1;shape=mxgraph.mockup.containers.userMale;strokeColor=#666666;strokeColor2=#008cff;" vertex="1" parent="493">
                    <mxGeometry x="76.19333333333333" y="40" width="38.096666666666664" height="40" as="geometry"/>
                </mxCell>
                <mxCell id="500" value="" style="verticalLabelPosition=bottom;shadow=0;dashed=0;align=center;html=1;verticalAlign=top;strokeWidth=1;shape=mxgraph.mockup.containers.userMale;strokeColor=#666666;strokeColor2=#008cff;" vertex="1" parent="493">
                    <mxGeometry x="76.19333333333333" y="80" width="38.096666666666664" height="40" as="geometry"/>
                </mxCell>
                <mxCell id="501" value="" style="verticalLabelPosition=bottom;shadow=0;dashed=0;align=center;html=1;verticalAlign=top;strokeWidth=1;shape=mxgraph.mockup.containers.userMale;strokeColor=#666666;strokeColor2=#008cff;direction=south;" vertex="1" parent="493">
                    <mxGeometry x="37.14" y="80" width="40" height="39.05" as="geometry"/>
                </mxCell>
                <mxCell id="502" value="" style="verticalLabelPosition=bottom;shadow=0;dashed=0;align=center;html=1;verticalAlign=top;strokeWidth=1;shape=mxgraph.mockup.containers.userMale;strokeColor=#666666;strokeColor2=#008cff;" vertex="1" parent="493">
                    <mxGeometry y="80" width="38.096666666666664" height="40" as="geometry"/>
                </mxCell>
                <mxCell id="503" value="" style="group" vertex="1" connectable="0" parent="1">
                    <mxGeometry x="-375" y="2325" width="260" height="260" as="geometry"/>
                </mxCell>
                <mxCell id="504" value="" style="group" vertex="1" connectable="0" parent="503">
                    <mxGeometry width="260" height="260" as="geometry"/>
                </mxCell>
                <mxCell id="505" value="2ch 配信" style="strokeWidth=1;shadow=0;dashed=0;align=center;html=1;shape=mxgraph.mockup.containers.window;align=left;verticalAlign=top;spacingLeft=8;strokeColor2=#008cff;strokeColor3=#c4c4c4;fontColor=#666666;mainText=;fontSize=17;labelBackgroundColor=none;" vertex="1" parent="504">
                    <mxGeometry width="260" height="260" as="geometry"/>
                </mxCell>
                <mxCell id="506" value="" style="group" vertex="1" connectable="0" parent="503">
                    <mxGeometry x="70" y="80" width="114.29" height="120" as="geometry"/>
                </mxCell>
                <mxCell id="507" value="" style="verticalLabelPosition=bottom;shadow=0;dashed=0;align=center;html=1;verticalAlign=top;strokeWidth=1;shape=mxgraph.mockup.containers.userMale;strokeColor=#666666;strokeColor2=#008cff;" vertex="1" parent="506">
                    <mxGeometry width="38.096666666666664" height="40" as="geometry"/>
                </mxCell>
                <mxCell id="508" value="" style="verticalLabelPosition=bottom;shadow=0;dashed=0;align=center;html=1;verticalAlign=top;strokeWidth=1;shape=mxgraph.mockup.containers.userMale;strokeColor=#666666;strokeColor2=#008cff;" vertex="1" parent="506">
                    <mxGeometry x="38.096666666666664" width="38.096666666666664" height="40" as="geometry"/>
                </mxCell>
                <mxCell id="509" value="" style="verticalLabelPosition=bottom;shadow=0;dashed=0;align=center;html=1;verticalAlign=top;strokeWidth=1;shape=mxgraph.mockup.containers.userMale;strokeColor=#666666;strokeColor2=#008cff;" vertex="1" parent="506">
                    <mxGeometry x="76.19333333333333" width="38.096666666666664" height="40" as="geometry"/>
                </mxCell>
                <mxCell id="510" value="" style="verticalLabelPosition=bottom;shadow=0;dashed=0;align=center;html=1;verticalAlign=top;strokeWidth=1;shape=mxgraph.mockup.containers.userMale;strokeColor=#666666;strokeColor2=#008cff;" vertex="1" parent="506">
                    <mxGeometry y="40" width="38.096666666666664" height="40" as="geometry"/>
                </mxCell>
                <mxCell id="511" value="" style="verticalLabelPosition=bottom;shadow=0;dashed=0;align=center;html=1;verticalAlign=top;strokeWidth=1;shape=mxgraph.mockup.containers.userMale;strokeColor=#666666;strokeColor2=#008cff;" vertex="1" parent="506">
                    <mxGeometry x="38.096666666666664" y="40" width="38.096666666666664" height="40" as="geometry"/>
                </mxCell>
                <mxCell id="512" value="" style="verticalLabelPosition=bottom;shadow=0;dashed=0;align=center;html=1;verticalAlign=top;strokeWidth=1;shape=mxgraph.mockup.containers.userMale;strokeColor=#666666;strokeColor2=#008cff;" vertex="1" parent="506">
                    <mxGeometry x="76.19333333333333" y="40" width="38.096666666666664" height="40" as="geometry"/>
                </mxCell>
                <mxCell id="513" value="" style="verticalLabelPosition=bottom;shadow=0;dashed=0;align=center;html=1;verticalAlign=top;strokeWidth=1;shape=mxgraph.mockup.containers.userMale;strokeColor=#666666;strokeColor2=#008cff;" vertex="1" parent="506">
                    <mxGeometry x="76.19333333333333" y="80" width="38.096666666666664" height="40" as="geometry"/>
                </mxCell>
                <mxCell id="514" value="" style="verticalLabelPosition=bottom;shadow=0;dashed=0;align=center;html=1;verticalAlign=top;strokeWidth=1;shape=mxgraph.mockup.containers.userMale;strokeColor=#666666;strokeColor2=#008cff;direction=south;" vertex="1" parent="506">
                    <mxGeometry x="37.144999999999996" y="80.95166666666667" width="40" height="38.096666666666664" as="geometry"/>
                </mxCell>
                <mxCell id="515" value="" style="verticalLabelPosition=bottom;shadow=0;dashed=0;align=center;html=1;verticalAlign=top;strokeWidth=1;shape=mxgraph.mockup.containers.userMale;strokeColor=#666666;strokeColor2=#008cff;" vertex="1" parent="506">
                    <mxGeometry y="80" width="38.096666666666664" height="40" as="geometry"/>
                </mxCell>
                <mxCell id="516" value="" style="edgeStyle=none;html=1;" edge="1" source="485" target="492" parent="1">
                    <mxGeometry relative="1" as="geometry"/>
                </mxCell>
                <mxCell id="517" value="" style="edgeStyle=none;html=1;" edge="1" source="485" target="492" parent="1">
                    <mxGeometry relative="1" as="geometry"/>
                </mxCell>
                <mxCell id="518" style="edgeStyle=none;html=1;" edge="1" source="485" target="505" parent="1">
                    <mxGeometry relative="1" as="geometry">
                        <mxPoint x="-465" y="2260" as="targetPoint"/>
                    </mxGeometry>
                </mxCell>
                <mxCell id="519" style="edgeStyle=none;html=1;" edge="1" source="520" parent="1">
                    <mxGeometry relative="1" as="geometry">
                        <mxPoint x="140" y="2160" as="targetPoint"/>
                    </mxGeometry>
                </mxCell>
                <mxCell id="520" value="" style="points=[[0,0,0],[0.25,0,0],[0.5,0,0],[0.75,0,0],[1,0,0],[0,1,0],[0.25,1,0],[0.5,1,0],[0.75,1,0],[1,1,0],[0,0.25,0],[0,0.5,0],[0,0.75,0],[1,0.25,0],[1,0.5,0],[1,0.75,0]];outlineConnect=0;fontColor=#232F3E;gradientColor=#FF5252;gradientDirection=north;fillColor=#C7131F;strokeColor=#ffffff;dashed=0;verticalLabelPosition=bottom;verticalAlign=top;align=center;html=1;fontSize=12;fontStyle=0;aspect=fixed;shape=mxgraph.aws4.resourceIcon;resIcon=mxgraph.aws4.chime;" vertex="1" parent="1">
                    <mxGeometry x="-80" y="2121" width="78" height="78" as="geometry"/>
                </mxCell>
                <mxCell id="521" value="" style="edgeStyle=none;html=1;" edge="1" source="492" target="520" parent="1">
                    <mxGeometry relative="1" as="geometry"/>
                </mxCell>
                <mxCell id="615" style="edgeStyle=none;html=1;" edge="1" parent="1" source="523" target="614">
                    <mxGeometry relative="1" as="geometry"/>
                </mxCell>
                <mxCell id="523" value="" style="points=[[0,0,0],[0.25,0,0],[0.5,0,0],[0.75,0,0],[1,0,0],[0,1,0],[0.25,1,0],[0.5,1,0],[0.75,1,0],[1,1,0],[0,0.25,0],[0,0.5,0],[0,0.75,0],[1,0.25,0],[1,0.5,0],[1,0.75,0]];outlineConnect=0;fontColor=#232F3E;gradientColor=#FF5252;gradientDirection=north;fillColor=#C7131F;strokeColor=#ffffff;dashed=0;verticalLabelPosition=bottom;verticalAlign=top;align=center;html=1;fontSize=12;fontStyle=0;aspect=fixed;shape=mxgraph.aws4.resourceIcon;resIcon=mxgraph.aws4.chime;" vertex="1" parent="1">
                    <mxGeometry x="-80" y="2416" width="78" height="78" as="geometry"/>
                </mxCell>
                <mxCell id="524" value="" style="edgeStyle=none;html=1;" edge="1" source="505" target="523" parent="1">
                    <mxGeometry relative="1" as="geometry"/>
                </mxCell>
                <mxCell id="548" style="edgeStyle=none;html=1;fontColor=#FFFFFF;" edge="1" source="549" target="485" parent="1">
                    <mxGeometry relative="1" as="geometry"/>
                </mxCell>
                <mxCell id="549" value="競技者" style="aspect=fixed;html=1;points=[];align=center;image;fontSize=12;image=img/lib/azure2/management_governance/User_Privacy.svg;fontColor=#FFFFFF;" vertex="1" parent="1">
                    <mxGeometry x="-900" y="2221" width="64" height="68" as="geometry"/>
                </mxCell>
                <mxCell id="550" style="edgeStyle=none;html=1;fontColor=#FFFFFF;" edge="1" source="551" target="583" parent="1">
                    <mxGeometry relative="1" as="geometry">
                        <mxPoint x="1285" y="2232.03937007874" as="targetPoint"/>
                    </mxGeometry>
                </mxCell>
                <mxCell id="551" value="観戦者" style="outlineConnect=0;dashed=0;verticalLabelPosition=bottom;verticalAlign=top;align=center;html=1;shape=mxgraph.aws3.user;fillColor=#D2D3D3;gradientColor=none;fontColor=#FFFFFF;" vertex="1" parent="1">
                    <mxGeometry x="1465" y="1940" width="45" height="63" as="geometry"/>
                </mxCell>
                <mxCell id="552" style="edgeStyle=none;html=1;fontColor=#FFFFFF;entryX=0.998;entryY=0.395;entryDx=0;entryDy=0;entryPerimeter=0;" edge="1" source="553" target="583" parent="1">
                    <mxGeometry relative="1" as="geometry">
                        <mxPoint x="1285" y="2274.779527559055" as="targetPoint"/>
                    </mxGeometry>
                </mxCell>
                <mxCell id="553" value="観戦者" style="outlineConnect=0;dashed=0;verticalLabelPosition=bottom;verticalAlign=top;align=center;html=1;shape=mxgraph.aws3.user;fillColor=#D2D3D3;gradientColor=none;fontColor=#FFFFFF;" vertex="1" parent="1">
                    <mxGeometry x="1465" y="2058" width="45" height="63" as="geometry"/>
                </mxCell>
                <mxCell id="554" style="edgeStyle=none;html=1;fontColor=#FFFFFF;" edge="1" source="555" target="583" parent="1">
                    <mxGeometry relative="1" as="geometry">
                        <mxPoint x="1289.6000000000004" y="2506.9000000000005" as="targetPoint"/>
                    </mxGeometry>
                </mxCell>
                <mxCell id="555" value="観戦者" style="outlineConnect=0;dashed=0;verticalLabelPosition=bottom;verticalAlign=top;align=center;html=1;shape=mxgraph.aws3.user;fillColor=#D2D3D3;gradientColor=none;fontColor=#FFFFFF;" vertex="1" parent="1">
                    <mxGeometry x="1465" y="2180" width="45" height="63" as="geometry"/>
                </mxCell>
                <mxCell id="616" style="edgeStyle=none;html=1;" edge="1" parent="1" source="613" target="599">
                    <mxGeometry relative="1" as="geometry"/>
                </mxCell>
                <mxCell id="613" value="Amazon Interactive Video Service&lt;br&gt;stream 1" style="html=1;shadow=0;dashed=0;shape=mxgraph.bootstrap.rrect;rSize=5;strokeColor=#001DBC;strokeWidth=1;fillColor=#0050ef;fontColor=#ffffff;whiteSpace=wrap;align=left;verticalAlign=middle;spacingLeft=10;fontStyle=1;fontSize=18;" vertex="1" parent="1">
                    <mxGeometry x="140" y="2115" width="140" height="90" as="geometry"/>
                </mxCell>
                <mxCell id="617" style="edgeStyle=none;html=1;" edge="1" parent="1" source="614" target="601">
                    <mxGeometry relative="1" as="geometry"/>
                </mxCell>
                <mxCell id="614" value="Amazon Interactive Video Service&lt;br&gt;stream 2" style="html=1;shadow=0;dashed=0;shape=mxgraph.bootstrap.rrect;rSize=5;strokeColor=#A50040;strokeWidth=1;fillColor=#d80073;fontColor=#ffffff;whiteSpace=wrap;align=left;verticalAlign=middle;spacingLeft=10;fontStyle=1;fontSize=18;" vertex="1" parent="1">
                    <mxGeometry x="140" y="2410" width="140" height="90" as="geometry"/>
                </mxCell>
            </root>
        </mxGraphModel>
    </diagram>
</mxfile>